<svg width="48" height="32" viewBox="0 0 48 32" fill="none" xmlns="http://www.w3.org/2000/svg">
<path d="M18.7622 0C20.6384 0 22.2541 0.679739 23.6091 2.03922C24.9642 3.50327 25.6417 5.28105 25.6417 7.37255C25.6417 9.56863 25.0163 12.0784 23.7655 14.902C22.4104 17.7255 20.7427 20.3922 18.7622 22.902C16.6775 25.5163 14.4886 27.6601 12.1954 29.3333C9.90228 31.1111 7.76547 32 5.78502 32C4.01303 32 2.60586 31.4771 1.56352 30.4314C0.521172 29.3856 0 28.1307 0 26.6667C0 25.9346 0.156351 25.2549 0.469054 24.6275C0.57329 24.2092 0.78176 23.7908 1.09446 23.3725C1.40717 22.9542 1.66775 22.4314 1.87622 21.8039C3.23127 20.1307 4.58632 18.4052 5.94137 16.6275C7.29642 14.8497 8.39088 12.915 9.22475 10.8235C9.74593 9.46405 10.3713 7.89542 11.101 6.11764C11.8306 4.44444 12.8208 2.98039 14.0717 1.72549C15.2182 0.575162 16.7818 0 18.7622 0ZM41.1205 0C42.9967 0 44.6124 0.679739 45.9674 2.03922C47.3225 3.50327 48 5.28105 48 7.37255C48 9.56863 47.3746 12.0784 46.1238 14.902C44.7687 17.7255 43.101 20.3922 41.1205 22.902C39.0358 25.5163 36.8469 27.6601 34.5537 29.3333C32.2606 31.1111 30.1238 32 28.1433 32C26.4756 32 25.1205 31.4771 24.0782 30.4314C22.9316 29.3856 22.3583 28.1307 22.3583 26.6667C22.3583 25.9346 22.5147 25.2549 22.8274 24.6275C23.0358 24.2092 23.2964 23.7908 23.6091 23.3725C23.8176 22.9542 24.0782 22.4314 24.3909 21.8039C25.7459 20.1307 27.101 18.4052 28.456 16.6275C29.8111 14.8497 30.8534 12.915 31.5831 10.8235C32.1042 9.46405 32.7296 7.89542 33.4593 6.11764C34.1889 4.44444 35.1792 2.98039 36.43 1.72549C37.5765 0.575162 39.1401 0 41.1205 0Z" fill="black" fill-opacity="0.08"/>
</svg>
