<svg width="36" height="43" viewBox="0 0 36 43" fill="none" xmlns="http://www.w3.org/2000/svg">
<path d="M3.45236 23.4196C3.81746 23.3675 4.29001 23.5247 4.55165 23.7732C4.96749 24.1671 4.90979 24.846 5.33657 25.2821C5.89169 25.8509 6.81191 25.6338 7.16408 26.4983C7.30932 26.8549 7.31231 27.0543 7.20487 27.4227C6.92134 28.4021 5.95635 28.1546 5.37338 28.7086C4.92173 29.1379 4.99136 29.8039 4.58846 30.2175C3.96868 30.8541 2.91714 30.6999 2.48439 29.9385C2.25757 29.5397 2.31228 29.1792 1.9422 28.7793C1.49751 28.2999 0.943392 28.3766 0.483779 28.0092C-0.23449 27.4345 -0.133017 26.349 0.655885 25.8922C1.05979 25.6584 1.43086 25.7134 1.82979 25.3568C2.49732 24.7585 2.27647 23.5866 3.45136 23.4186L3.45236 23.4196ZM3.76772 24.5827C3.51006 24.3685 3.31308 25.2556 3.2325 25.4167C2.79577 26.292 2.02477 26.628 1.15728 26.9787C1.11749 27.1447 1.91037 27.3579 2.09143 27.4551C2.56198 27.7076 3.02259 28.187 3.25936 28.6595C3.3091 28.7587 3.55781 29.7686 3.76872 29.3982C3.85527 29.245 3.91098 28.8638 4.02638 28.633C4.26016 28.1663 4.64616 27.7429 5.10875 27.4915C5.30374 27.3854 6.06976 27.1712 6.08568 27.1221C6.19113 26.7733 5.81907 26.8559 5.5614 26.7557C4.84214 26.4767 4.29896 25.9983 3.97962 25.2969C3.90799 25.1397 3.79657 24.6072 3.76872 24.5837L3.76772 24.5827Z" fill="#FF6002"/>
<path d="M26.6021 26.3843C26.5454 26.4482 26.5056 26.4659 26.5295 26.57C27.2657 26.7341 27.8258 27.3952 28.1093 28.0681C28.1919 28.2636 28.2237 28.6094 28.2834 28.7066C28.3212 28.7675 29.2742 29.3422 29.4782 29.5161C30.7764 30.6183 31.624 32.2815 31.7514 33.976C31.7892 34.482 31.6668 35.2158 31.7533 35.6686C31.7802 35.8091 32.1752 36.3435 32.2756 36.6264C32.8228 38.1756 32.1284 39.8997 30.5844 40.5588C30.3695 40.6512 29.7388 40.7671 29.6801 40.8074C29.6214 40.8477 29.4802 41.3123 29.3976 41.4489C28.8862 42.2927 28.2207 42.7142 27.2756 43H24.5896C23.8046 42.7574 24.1309 41.6542 24.9487 41.7279L26.5713 41.7544C27.2488 41.7416 27.8616 41.4479 28.2227 40.8742C27.7382 40.6257 27.2915 40.3162 26.8836 39.9449L10.9236 39.9233C10.6022 40.3329 10.1376 40.6266 9.6442 40.7966C9.78646 41.3703 10.5346 41.7023 11.1345 41.7475L22.4059 41.7554C23.1311 41.89 23.2973 42.9008 22.5014 43.001H10.5634C9.61833 42.7151 8.95279 42.2937 8.44144 41.4499C8.35887 41.3133 8.21462 40.8467 8.15891 40.8084C8.1032 40.7701 7.46949 40.6522 7.25461 40.5598C5.68377 39.8889 5.00032 38.1403 5.58329 36.5724C5.67979 36.3121 6.05982 35.8042 6.08668 35.6696C6.17422 35.2177 6.05186 34.4829 6.08867 33.977C6.21501 32.2824 7.0646 30.6173 8.36186 29.5171C8.56679 29.3432 9.51885 28.7685 9.55665 28.7076C9.61435 28.6153 9.66708 28.2233 9.75462 28.019C10.0342 27.3657 10.5863 26.7223 11.3105 26.571C11.3344 26.4669 11.2946 26.4502 11.2379 26.3853M26.231 38.654C26.0191 37.4978 26.1345 36.2915 27.0876 35.4849C27.001 33.3984 27.3363 30.9504 27.1254 28.8933C27.0488 28.1457 26.5146 27.5936 25.7485 27.5268C21.3265 27.7783 16.5434 27.2026 12.1631 27.5268C11.3006 27.5907 10.7823 28.1202 10.7087 28.964C10.5336 30.9641 10.8479 33.2059 10.7087 35.2325C10.8091 35.6205 11.1494 35.8563 11.3473 36.2227C11.7711 37.0056 11.7393 37.8004 11.607 38.655L26.231 38.654ZM9.51785 34.6755V30.1075C8.67622 30.6566 7.95 31.5791 7.59584 32.5192C7.50531 32.7609 7.27948 33.4623 7.27948 33.6803V34.8218C8.00372 34.4869 8.75183 34.5045 9.51785 34.6755ZM30.5586 34.8228V33.6813C30.5586 32.5094 29.3279 30.7549 28.356 30.1085C28.1282 30.0888 28.3202 30.188 28.3202 30.2185V34.6765C29.0862 34.5055 29.8343 34.4878 30.5586 34.8228ZM8.23054 35.7256C5.70068 36.0537 6.12348 39.9665 8.80058 39.6767C11.3414 39.4006 11.0131 35.3651 8.23054 35.7256ZM28.9728 35.7256C26.4569 36.0793 26.8986 39.9635 29.5428 39.6757C32.1871 39.3879 31.7633 35.3327 28.9728 35.7256Z" fill="#FF6002"/>
<path d="M19.6423 29.9749C20.1307 29.8295 20.5346 30.2362 20.3924 30.7156L18.5012 35.4054C18.0834 36.0419 17.2258 35.5783 17.4586 34.8916C18.154 33.5143 18.5569 31.7431 19.2533 30.4002C19.3229 30.2657 19.498 30.0171 19.6423 29.9749Z" fill="#FF6002"/>
<path d="M22.778 30.1949C23.0635 30.133 23.2396 30.2008 23.4276 30.4061C23.6604 30.6586 24.4781 32.0182 24.6502 32.3669C24.9059 32.8856 24.7647 32.9308 24.5269 33.3984C24.3249 33.7972 23.6843 34.9663 23.4286 35.261C23.0058 35.7502 22.2925 35.3258 22.381 34.8179C22.4696 34.3071 23.341 33.3522 23.5161 32.7962C23.5161 32.5074 22.4736 31.2677 22.383 30.8452C22.3313 30.6055 22.5233 30.2499 22.778 30.1949Z" fill="#FF6002"/>
<path d="M14.7198 30.1949C15.1128 30.1104 15.456 30.3393 15.467 30.746C15.4779 31.1213 14.4423 32.3404 14.3199 32.7962C14.4781 33.3021 15.5664 34.5733 15.4381 35.0272C15.3098 35.481 14.7447 35.6519 14.4065 35.261C14.1508 34.9653 13.5171 33.8012 13.3082 33.3984C13.2336 33.254 13.0336 32.9308 13.0306 32.7982C13.0266 32.6096 14.0971 30.8423 14.2891 30.5849C14.4134 30.4179 14.4821 30.246 14.7178 30.1959L14.7198 30.1949Z" fill="#FF6002"/>
<path d="M32.2756 36.5803C32.1752 36.2974 31.7802 35.762 31.7534 35.6225C31.6658 35.1706 31.7882 34.4358 31.7514 33.9299C31.625 32.2353 30.7764 30.5712 29.4782 29.4699C29.2732 29.2961 28.3212 28.7214 28.2834 28.6605C28.2237 28.5632 28.1919 28.2174 28.1093 28.0219C27.8258 27.349 27.2657 26.6879 26.5295 26.5238C26.5056 26.4197 26.5454 26.403 26.6021 26.3382H25.0144C24.1349 26.851 23.1849 27.2567 22.1801 27.5357C23.3858 27.5533 24.5796 27.5445 25.7485 27.4787C26.5146 27.5465 27.0478 28.0976 27.1254 28.8452C27.3363 30.9022 27.001 33.3513 27.0876 35.4368C26.1345 36.2433 26.0191 37.4497 26.231 38.6059H11.607C11.7393 37.7513 11.7711 36.9565 11.3473 36.1736C11.1494 35.8072 10.8091 35.5714 10.7087 35.1834C10.8479 33.1567 10.5336 30.915 10.7087 28.9149C10.7823 28.0711 11.3006 27.5416 12.1631 27.4777C13.1371 27.406 14.1319 27.3795 15.1377 27.3775C14.3239 27.1113 13.5479 26.7606 12.8217 26.3372H11.2349C11.2916 26.401 11.3314 26.4187 11.3076 26.5228C10.5833 26.6741 10.0312 27.3186 9.75164 27.9708C9.66409 28.1752 9.61037 28.5662 9.55367 28.6595C9.51586 28.7204 8.56281 29.2951 8.35887 29.469C7.06261 30.5692 6.21302 32.2353 6.08568 33.9289C6.04788 34.4348 6.17024 35.1696 6.08369 35.6215C6.05783 35.7571 5.6778 36.264 5.58031 36.5243C4.99833 38.0921 5.68178 39.8407 7.25162 40.5117C7.46651 40.604 8.09723 40.72 8.15593 40.7602C8.21164 40.7995 8.35589 41.2652 8.43846 41.4017C8.9498 42.2456 9.61535 42.667 10.5604 42.9529H22.4984C23.2943 42.8527 23.1282 41.8418 22.4029 41.7072L11.1315 41.6994C10.5316 41.6532 9.78347 41.3221 9.64121 40.7484C10.1346 40.5785 10.5992 40.2848 10.9206 39.8751L26.8807 39.8967C27.2885 40.2681 27.7352 40.5775 28.2197 40.8261C27.8586 41.4007 27.2458 41.6935 26.5683 41.7063L24.9457 41.6797C24.128 41.606 23.8017 42.7102 24.5866 42.9519H27.2726C28.2177 42.666 28.8833 42.2446 29.3946 41.4007C29.4772 41.2642 29.6214 40.7976 29.6771 40.7593C29.7358 40.719 30.3666 40.6031 30.5814 40.5107C32.1244 39.8516 32.8198 38.1275 32.2727 36.5783L32.2756 36.5803ZM7.27948 33.6342C7.27948 33.4161 7.50431 32.7147 7.59584 32.473C7.95 31.5319 8.67722 30.6105 9.51785 30.0613V34.6293C8.75183 34.4584 8.00372 34.4417 7.27948 34.7767V33.6342ZM8.80058 39.6305C6.12348 39.9213 5.70068 36.0076 8.23054 35.6795C11.0131 35.3189 11.3414 39.3545 8.80058 39.6305ZM28.356 30.0613C29.3279 30.7077 30.5586 32.4622 30.5586 33.6342V34.7757C29.8343 34.4407 29.0862 34.4574 28.3202 34.6283V30.1704C28.3202 30.1409 28.1282 30.0427 28.356 30.0613ZM29.5428 39.6305C26.8986 39.9174 26.4579 36.0341 28.9728 35.6804C31.7623 35.2875 32.1224 39.3505 29.5428 39.6305Z" fill="#FF6002"/>
<path d="M28.0178 23.9471C27.7094 23.9294 26.9055 24.8096 26.6041 25.0493C25.5735 25.8666 24.501 26.4865 23.4127 26.9295H25.1934V27.3205C25.4382 27.2017 25.6978 27.072 25.9724 26.9295C26.5006 26.5366 28.55 25.179 28.5818 24.566C28.5977 24.2605 28.3212 23.9638 28.0168 23.9461L28.0178 23.9471Z" fill="#FF6002"/>
<path d="M35.3586 14.0507C35.2253 13.8179 34.9806 13.6254 34.8881 13.4102C34.6632 12.8876 34.5458 11.8542 34.3489 11.2166C33.751 9.28431 32.7164 7.41291 31.4201 5.85783C32.1145 5.49534 33.0824 5.34209 33.0625 4.31454C33.0347 2.89306 31.4778 3.26734 30.8809 2.26336C30.6899 1.94311 30.6988 1.5649 30.481 1.25841C29.9428 0.500023 28.6684 0.572718 28.2436 1.39594C28.1212 1.63269 27.9849 2.50994 27.6527 2.50699C27.5373 2.50601 25.9594 1.56098 25.6262 1.41067C24.5677 0.93521 23.4515 0.585488 22.3174 0.331056L20.1526 0H17.5412L17.4228 0.0677831C14.5825 0.298638 11.5722 1.39889 9.30993 3.10623C8.94284 3.38326 8.43746 3.66421 8.62151 4.20353C8.67523 4.36169 8.9319 4.53164 9.09206 4.55522C9.34177 4.59058 10.7703 3.50114 11.1325 3.28502C15.2909 0.801608 20.4292 0.427328 24.9049 2.3449C25.1039 2.43037 26.3823 3.04827 26.4211 3.13177C26.4768 3.2526 26.045 3.38915 26.0162 3.54142C25.7058 4.01197 25.658 4.43832 25.9326 4.9403C26.3146 5.6368 26.812 5.46882 27.3681 5.80675C28.2496 6.34214 27.962 7.23019 28.6644 7.69485C29.4314 8.20175 30.5586 7.77639 30.675 6.85297C32.0339 8.35009 32.9342 10.3541 33.4346 12.3041C32.778 12.0978 32.1334 11.8689 31.428 11.9288C31.1495 10.6626 29.8542 9.61439 28.551 9.5024C27.9611 9.4523 27.389 9.57706 26.8359 9.58197C23.5171 9.61341 20.3884 9.15071 17.4666 7.55437C14.8959 6.14959 13.4703 3.56303 10.3446 6.04448C8.56281 7.45908 7.04868 9.76371 6.41795 11.9288C5.71262 11.8689 5.06697 12.0978 4.41138 12.3041C4.83319 10.4828 5.70068 8.70177 6.81191 7.19778C7.02182 6.91387 8.00173 5.86078 8.05048 5.69476C8.25044 5.02086 7.55306 4.68685 7.04768 5.11025C5.90263 6.06904 4.36761 8.81966 3.83239 10.2235C3.44937 11.2264 3.31806 12.4849 2.97086 13.3513C2.87038 13.5998 2.60178 13.8415 2.45852 14.0979C0.647927 17.3397 3.01762 20.997 6.71143 20.7907C7.72516 23.3311 9.58152 25.4275 11.8706 26.9305C11.9383 26.9894 12.0079 27.0464 12.0795 27.1024V26.9305H14.5268C8.74188 24.6121 4.83418 17.9989 7.95796 11.0555C8.59067 9.64975 10.3744 7.12213 11.7741 6.42465C13.4455 5.59259 14.4413 6.9738 15.654 7.798C18.7738 9.91794 22.3303 10.6822 26.0858 10.7176C27.7193 10.7333 29.4921 10.1684 30.283 12.0664C31.3644 14.6588 30.9933 18.3643 29.8423 20.8791C29.6553 21.2888 28.8862 22.4313 28.8375 22.6926C28.7261 23.282 29.4165 23.5856 29.8532 23.1739C30.0442 22.9932 30.4869 22.166 30.6381 21.8861C30.8292 21.5324 30.9674 21.1552 31.1336 20.7917C34.8403 21.0236 37.208 17.267 35.3596 14.0527L35.3586 14.0507ZM29.4404 6.77929C29.2752 6.8176 29.0375 5.96 28.9131 5.75468C28.6704 5.3529 28.2117 4.93637 27.7899 4.72713C27.6059 4.63577 26.6757 4.41769 26.9871 4.19567C27.1751 4.06207 27.778 3.95401 28.0864 3.74673C28.7868 3.27618 29.0683 2.58558 29.3677 1.8439C29.5607 1.79871 29.6871 2.47359 29.7627 2.63175C30.084 3.30467 30.6859 3.7821 31.3674 4.06797C31.4738 4.11217 31.8518 4.18094 31.8668 4.20255C31.9046 4.25854 31.8707 4.4 31.7912 4.45796C31.6927 4.52968 31.1306 4.6564 30.8749 4.80572C30.0611 5.28118 29.7647 5.94821 29.4414 6.78027L29.4404 6.77929ZM5.52758 19.5628C1.85167 18.6079 2.31328 13.3985 6.04987 13.1155C5.65193 14.9142 5.65989 16.7021 5.99814 18.5087C6.0618 18.8486 6.23292 19.2425 6.27171 19.5667C6.29858 19.7917 5.64298 19.5932 5.52758 19.5628ZM31.5683 19.6728C32.1384 17.5489 32.2796 15.3121 31.7902 13.1538C32.784 13.0674 33.8415 13.7835 34.3429 14.6117C35.7038 16.8623 34.1589 19.548 31.5683 19.6728Z" fill="#FF6002"/>
<path d="M21.4558 15.3494L18.8036 15.1982L16.3822 15.3494C16.613 16.324 16.2141 17.6374 15.448 18.2936C14.4522 19.1463 12.5252 19.1934 11.4329 18.5048C9.99935 17.601 9.49099 14.7738 11.3324 14.0085C12.0587 13.706 14.3328 13.701 15.081 13.9447C15.272 14.0066 15.655 14.2708 15.7465 14.2826C16.1524 14.3356 17.1233 14.1117 17.6108 14.093C18.4176 14.0626 19.3468 14.0645 20.1546 14.093C20.6868 14.1117 21.6429 14.3268 22.0945 14.2846C22.2209 14.2728 22.5492 14.0164 22.7581 13.9457C23.4206 13.7207 25.4849 13.7246 26.1723 13.8975C28.5132 14.485 27.9262 17.8682 26.0818 18.7013C25.3596 19.0274 24.1648 19.049 23.4127 18.8329C21.9135 18.4007 21.2061 16.7935 21.4558 15.3494ZM11.7821 17.3122C12.3084 17.8889 13.729 17.9409 14.3915 17.6187C15.2909 17.1825 15.8271 15.1382 14.4811 14.9781C13.9787 14.9182 12.5929 14.9192 12.0905 14.9781C10.9514 15.1127 11.2489 16.7277 11.7821 17.3122ZM23.2266 14.9968C22.0677 15.2296 22.5979 17.2444 23.4952 17.6452C23.929 17.8388 25.0581 17.8515 25.5068 17.6904C26.5494 17.3171 27.0717 15.1353 25.7485 14.9781C25.3088 14.9261 23.6286 14.9162 23.2266 14.9968Z" fill="#FF6002"/>
<path d="M17.1074 17.2051C17.5849 17.0637 17.8177 17.549 18.1978 17.7199C18.5977 17.8997 18.9568 17.9006 19.3667 17.7435C19.8004 17.5774 19.9457 17.0971 20.4471 17.1924C20.5625 17.214 20.7804 17.3928 20.8201 17.4881C21.1962 18.3702 19.4881 19.0186 18.8076 19.0186C18.1271 19.0186 16.5085 18.4115 16.7712 17.5391C16.798 17.4507 17.0189 17.2317 17.1074 17.2051Z" fill="#FF6002"/>
</svg>
