<svg width="379" height="379" viewBox="0 0 379 379" fill="none" xmlns="http://www.w3.org/2000/svg">
<path d="M175.436 0.0197396L174.547 0.523099L173.955 0.0197396H175.436Z" fill="white"/>
<path d="M78.4648 0.0197396C89.7263 0.227005 97.6517 6.17849 104.58 14.1335C126.185 4.74737 149.093 0.503359 171.734 0.0197396H173.955C174.478 0.335573 174.873 0.227005 175.436 0.0197396H196.902C201.186 1.23372 205.598 1.62852 209.871 2.97081C227.439 8.49789 241.928 23.5296 244.948 41.917C245.768 46.9309 243.478 45.5294 247.248 49.2108C255.993 57.7383 264.066 66.5816 270.501 77.0732C272.465 80.271 277.42 87.851 276.729 91.266C275.841 95.6284 269.801 96.9608 266.751 93.7729C260.257 82.0377 253.15 70.2137 242.817 61.4592C236.066 83.7551 211.727 97.0398 189.105 96.2798C183.025 96.0725 176.561 93.7828 170.619 93.2991C151.926 91.7989 133.232 95.5297 116.947 104.748C109.732 108.834 103.465 115.23 95.9936 118.586C80.8139 125.386 62.614 123.984 49.2305 114.036C46.9506 114.036 43.1507 146.833 44.7694 150.337C51.0663 151.965 53.968 146.586 59.3767 144.889C74.8229 140.052 86.41 141.691 101.353 131.347C108.568 126.353 111.203 120.451 120.658 118.082C135.542 114.361 141.612 122.701 153.002 129.423C174.636 142.174 200.712 149.587 225.525 153.13C231.634 153.998 251.384 156.851 256.22 155.824C258.056 155.439 262.073 152.133 265.596 151.245C269.82 150.179 274.094 149.715 278.328 151.028C278.15 146.744 278.595 142.372 278.328 138.078C277.756 128.85 275.14 119.869 273.926 110.739C274.795 106.288 280.144 104.541 283.579 107.66C286.451 110.285 289.037 128.268 289.432 132.887C289.876 138.108 289.461 143.388 289.442 148.432C289.412 158.874 290.024 154.482 295.235 161.134C306.427 175.426 300.377 198.087 283.273 204.443C281.19 205.213 276.127 205.864 275.308 206.841C274.341 207.996 270.097 222.643 268.606 226.048C260.099 245.491 245.807 261.925 228.752 274.321C233.184 280.499 234.783 286.5 233.835 294.169C233.618 295.906 231.713 300.288 231.812 300.802C231.911 301.315 237.635 307.326 238.661 308.747C244.791 317.166 250.466 327.292 252.42 337.557C258.5 335.968 264.53 332.878 270.916 334.596C280.194 302.203 293.399 270.955 302.539 238.523C304.296 232.295 309.082 216.79 309.369 211.243C309.596 206.92 307.345 201.699 307.938 195.807C309.754 177.755 331.378 161.884 347.496 156.9C370.394 149.814 374.944 175.495 379 191.731V206.535C378.605 218.724 371.835 226.857 361.886 232.69C349.479 251.808 338.628 271.467 329.844 293.012C324.596 301.601 314.827 307.938 313.178 294.87L328.94 261.392C323.157 258.707 317.235 256.358 311.175 254.325L283.164 337.458C285.721 339.166 287.931 340.814 289.787 342.393L303.802 314.274C308.401 308.086 317.511 312.152 316.751 319.653L297.13 360.761C297.614 369.16 293.676 378.507 284.25 379H250.199C247.988 378.122 245.758 378.122 243.537 379H65.8809C43.5258 378.447 22.6314 365.567 9.75135 347.436C4.81646 340.488 0.513229 332.888 0 324.223V312.379C0.671146 298.226 12.0017 287.231 25.5134 284.507C39.2127 282.464 51.5598 278.279 56.5934 264.224C57.5014 261.688 62.1303 244.593 62.0316 242.984C55.1425 232.286 49.9411 220.649 46.4374 208.095C37.1104 205.558 29.8364 202.528 24.6251 193.576C17.588 181.476 19.8975 163.582 31.6919 155.429C31.2872 138.286 32.5506 122.04 37.6829 105.508C29.7179 89.4499 28.7704 75.7507 40.2293 60.413C47.9474 50.0793 58.1824 41.8084 67.9831 34.1199C49.6451 30.0436 48.9147 2.52667 68.0917 0H78.455L78.4648 0.0197396Z" fill="white"/>
<path d="M330.556 291.588L304.197 346.443L285.675 350.717L277.126 344.306L287.1 308.685L312.034 248.131L333.406 255.967L330.556 291.588Z" fill="white"/>
<path d="M287.1 117.76C285.39 109.212 276.414 89.0268 272.139 80.003L260.741 70.7417L240.793 55.7812L205.173 74.3037C171.69 78.3407 104.439 86.5571 103.299 87.127C102.159 87.697 63.4041 95.9134 44.1692 99.9503L39.1823 139.845L41.3195 161.217L66.2538 182.589C95.4624 180.69 154.592 176.89 157.442 176.89C161.004 176.89 277.126 171.191 279.263 171.191C281.4 171.191 289.237 128.447 287.1 117.76Z" fill="white"/>
<path d="M175.436 0.0197396L174.547 0.523099L173.955 0.0197396H175.436Z" fill="black"/>
<path d="M78.4648 0.0197396C89.7263 0.227005 97.6517 6.17849 104.58 14.1335C126.185 4.74737 149.093 0.503359 171.734 0.0197396L173.955 0.0197396C174.478 0.335573 174.873 0.227005 175.436 0.0197396L196.902 0.0197396C201.186 1.23372 205.598 1.62852 209.871 2.97081C227.439 8.49789 241.928 23.5296 244.948 41.917C245.768 46.9309 243.478 45.5294 247.248 49.2108C255.993 57.7383 264.066 66.5816 270.501 77.0732C272.465 80.271 277.42 87.851 276.729 91.266C275.841 95.6284 269.801 96.9608 266.751 93.7729C260.257 82.0377 253.15 70.2137 242.817 61.4592C236.066 83.7551 211.727 97.0398 189.105 96.2798C183.025 96.0725 176.561 93.7828 170.619 93.2991C151.926 91.7989 133.232 95.5297 116.947 104.748C109.732 108.834 103.465 115.23 95.9936 118.586C80.8139 125.386 62.614 123.984 49.2305 114.036C46.9506 114.036 43.1507 146.833 44.7694 150.337C51.0663 151.965 53.968 146.586 59.3767 144.889C74.8229 140.052 86.41 141.691 101.353 131.347C108.568 126.353 111.203 120.451 120.658 118.082C135.542 114.361 141.612 122.701 153.002 129.423C174.636 142.174 200.712 149.587 225.525 153.13C231.634 153.998 251.384 156.851 256.22 155.824C258.056 155.439 262.073 152.133 265.596 151.245C269.82 150.179 274.094 149.715 278.328 151.028C278.15 146.744 278.595 142.372 278.328 138.078C277.756 128.85 275.14 119.869 273.926 110.739C274.795 106.288 280.144 104.541 283.579 107.66C286.451 110.285 289.037 128.268 289.432 132.887C289.876 138.108 289.461 143.388 289.442 148.432C289.412 158.874 290.024 154.482 295.235 161.134C306.427 175.426 300.377 198.087 283.273 204.443C281.19 205.213 276.127 205.864 275.308 206.841C274.341 207.996 270.097 222.643 268.606 226.048C260.099 245.491 245.807 261.925 228.752 274.321C233.184 280.499 234.783 286.5 233.835 294.169C233.618 295.906 231.713 300.288 231.812 300.802C231.911 301.315 237.635 307.326 238.661 308.747C244.791 317.166 250.466 327.292 252.42 337.557C258.5 335.968 264.53 332.878 270.916 334.596C280.194 302.203 293.399 270.955 302.539 238.523C304.296 232.295 309.082 216.79 309.369 211.243C309.596 206.92 307.345 201.699 307.938 195.807C309.754 177.755 331.378 161.884 347.496 156.9C370.394 149.814 374.944 175.495 379 191.731V206.535C378.605 218.724 371.835 226.857 361.886 232.69C349.479 251.808 338.889 272.14 330.105 293.686C326.73 303.536 314.827 307.938 313.178 294.87L328.94 261.392C323.157 258.707 317.235 256.358 311.175 254.325L283.164 337.458C285.721 339.166 287.931 340.814 289.787 342.393L303.802 314.274C308.401 308.086 317.511 312.152 316.751 319.653L297.13 360.761C297.614 369.16 293.676 378.507 284.25 379H250.199C247.988 378.122 245.758 378.122 243.537 379H65.8809C43.5258 378.447 22.6314 365.567 9.75136 347.436C4.81646 340.488 0.513229 332.888 0 324.223V312.379C0.671146 298.226 12.0017 287.231 25.5134 284.507C39.2127 282.464 51.5598 278.279 56.5934 264.224C57.5014 261.688 62.1303 244.593 62.0316 242.984C55.1425 232.286 49.9411 220.649 46.4374 208.095C37.1104 205.558 29.8364 202.528 24.6251 193.576C17.588 181.476 19.8975 163.582 31.6919 155.429C31.2872 138.286 32.5506 122.04 37.6829 105.508C29.7179 89.4499 28.7704 75.7507 40.2293 60.413C47.9474 50.0793 58.1824 41.8084 67.9831 34.1199C49.6451 30.0436 48.9147 2.52667 68.0917 0H78.455L78.4648 0.0197396ZM92.5293 21.4767C90.654 14.1138 67.8943 5.99096 66.7593 16.1174C66.0881 22.0491 74.4182 21.6839 78.1391 22.9374C79.8664 23.5197 82.6793 25.6516 83.4096 25.7799C85.1566 26.0859 90.3777 21.8221 92.5293 21.4767ZM184.93 11.3009C139.588 10.9851 83.7748 29.2541 53.6522 64.4103C26.9051 95.6284 66.9665 123.155 95.2632 106.021C117.046 92.8254 127.182 83.153 155.084 81.4554C176.837 80.1328 194.08 90.3481 214.895 78.3464C241.139 63.2061 239.54 29.8956 212.605 16.522C203.841 12.1695 194.642 11.37 184.93 11.3009ZM256.032 225.712C260.237 216.583 263.82 207.039 265.527 197.08C266.504 191.395 268.281 178.614 266.514 173.57C265.616 171.004 263.494 168.902 260.888 168.092C222.11 165.674 182.325 159.654 148.284 140.052C142.53 136.736 134.032 129.048 127.695 128.771C118.773 128.386 114.845 135.907 108.301 140.526C101.175 145.56 92.3516 149.36 83.9524 151.709C77.3496 153.554 68.5457 153.9 62.8903 155.814C57.5705 157.611 56.544 163.049 56.2479 168.053C85.8869 169.79 105.38 198.037 96.2206 226.531C122.948 232.286 145.244 256.881 150.287 283.5C166.03 285.375 181.772 282.641 196.892 278.338C195.274 274.824 192.106 271.488 190.605 267.985C182.7 249.637 196.557 229.404 216.504 230.993C218.873 231.18 223.393 232.986 225.268 232.374C226.245 232.049 227.627 228.673 229.107 227.282C236.628 220.225 247.13 225.456 256.032 225.712ZM277.588 193.961C295.581 188.809 292.106 161.874 273.146 162.141C280.509 171.221 278.545 183.065 277.588 193.961ZM45.1543 162.871C29.8166 166.395 29.5896 189.48 44.7792 193.961L45.1543 162.871ZM352.144 167.471C345.601 168.852 331.053 178.16 326.424 183.203C322.94 187.003 318.113 195.728 319.011 200.969C319.327 202.834 320.818 202.972 322.249 203.713C333.411 209.437 347.713 213.276 359.359 218.409C371.825 209.19 367.798 189.036 362.735 176.541C360.622 171.33 359.014 166.01 352.154 167.471H352.144ZM55.5176 179.897C56.4355 198.58 60.8473 217.56 71.4277 233.184C73.5596 229.956 82.4029 228.081 83.9821 225.762C84.8111 224.558 86.3311 218.853 86.5186 217.195C88.8676 197.11 75.879 180.657 55.5077 179.897H55.5176ZM313.919 241.257L336.363 250.12L349.341 227.716L319.781 215.428L313.909 241.257H313.919ZM249.459 236.155C245.847 236.737 240.764 234.348 237.369 235.533C236.283 235.908 234.792 239.866 232.819 241.346C223.659 248.176 209.427 235.918 201.689 250.189C198.995 255.154 199.33 259.319 201.689 264.323C202.173 265.349 206.841 272.584 207.266 272.86C208.559 273.679 216.622 268.626 218.31 267.56C228.426 261.194 241.267 249.311 247.83 239.342C248.511 238.316 249.647 237.517 249.459 236.164V236.155ZM17.2919 303.042C1.97396 319.159 20.2923 343.814 34.1199 354.158C88.305 394.723 161.786 338.692 136.035 275.19C129.452 258.944 105.656 233.371 86.4298 237.823C70.8947 241.425 73.5892 257.838 68.98 269.218C64.6175 280.006 55.636 288.82 44.9174 293.271C35.5707 297.16 24.635 295.294 17.2919 303.022V303.042ZM152.488 295.373V306.112C152.488 306.477 157.097 310.79 157.857 311.106C167.263 314.925 168.833 304.552 176.877 303.851C181.298 303.466 185.098 307.286 189.51 306.151C193.014 305.243 194.573 301.581 197.376 299.933C205.065 295.423 208.953 301.907 215.615 300.407C219.8 299.469 222.86 293.893 222.86 289.826C222.86 287.823 220.777 281.279 218.744 281.24C217.007 281.21 204.285 287.566 200.979 288.731C185.345 294.228 169.06 296.281 152.478 295.383L152.488 295.373ZM239.836 367.916C238.385 363.475 239.194 359.122 240.369 354.76C241.909 348.996 244.001 349.361 242.432 342.738C241.001 336.718 237.832 329.138 234.783 323.749C233.421 321.341 225.831 309.941 223.817 309.556C223.265 309.448 216.326 312.399 213.553 312.458C210.513 312.517 204.699 309.941 203.347 310.286C202.281 310.553 200.09 313.514 198.63 314.491C194.198 317.472 188.503 318.242 183.272 317.511C181.624 317.284 178.515 315.527 178.012 315.567C177.567 315.606 174.291 319.1 172.988 319.939C165.852 324.539 157.315 324.795 150.277 319.791C146.872 335.553 137.654 349.41 125.85 360.139L115.477 367.896H205.785V350.506C205.785 346.607 211.174 344.495 214.658 346.074C215.329 346.38 217.629 349.292 217.629 349.766V367.906H239.836V367.916ZM251.867 366.998C252.538 367.571 255.391 367.857 256.467 367.946C260.533 368.262 278.378 368.558 281.329 367.581C282.592 367.166 283.263 366.673 283.51 365.32C287.122 345.847 260.089 338.188 252.519 355.046C251.344 357.662 249.617 365.044 251.867 366.988V366.998Z" fill="black"/>
<path d="M148.59 197.81C153.87 197.11 156.703 207.256 166.336 202.252C169.77 200.465 172.455 195.205 177.311 199.123C184.94 205.272 171.409 213.829 165.378 214.628C158.973 215.477 146.951 213.128 144.168 206.358C142.599 202.548 144.346 198.373 148.59 197.81Z" fill="black"/>
<path d="M113.039 189.668C115.921 188.799 119.75 189.747 120.5 193.004C120.984 195.096 120.984 203.93 120.5 206.012C119.336 211.075 110.966 210.858 109.713 205.272C108.864 201.512 108.548 191.02 113.039 189.668Z" fill="black"/>
<path d="M205.568 189.678C208.598 188.77 212.556 190.369 213.178 193.606C213.493 195.274 213.474 204.542 213.039 206.022C211.618 210.908 203.11 210.7 202.104 205.42C201.383 201.66 201.127 191.01 205.568 189.678Z" fill="black"/>
<path d="M98.3031 316.268C119.533 315.083 122.366 348.108 101.037 350.151C77.922 352.361 75.3953 317.541 98.3031 316.268ZM97.5135 328.072C92.7958 329.049 92.5688 337.419 97.3655 338.297C107.304 340.123 106.061 326.295 97.5135 328.072Z" fill="black"/>
<path d="M63.3937 343.962C48.4311 358.994 24.9212 338.396 37.7519 321.657C51.9842 303.101 79.7973 327.48 63.3937 343.962ZM55.2906 335.869C59.5938 330.52 52.1618 323.591 47.3257 328.269C41.9071 333.52 51.0367 341.149 55.2906 335.869Z" fill="black"/>
<path d="M108.617 271.123C128.386 267.767 137.18 292.501 121.053 302.065C108.666 309.408 93.5261 298.828 95.6679 284.822C96.5956 278.743 102.458 272.179 108.617 271.133V271.123ZM111.578 282.158C104.975 283.372 106.436 293.547 112.831 293.143C119.839 292.699 118.951 280.805 111.578 282.158Z" fill="black"/>
<path d="M165.585 361.017C160.532 365.656 153.436 359.251 156.89 353.427C161.114 346.292 171.981 355.155 165.585 361.017Z" fill="black"/>
<path d="M165.605 335.573C171.991 341.011 161.253 350.526 156.89 343.173C153.298 337.113 160.887 331.546 165.605 335.573Z" fill="black"/>
</svg>
