<svg width="374" height="383" viewBox="0 0 374 383" fill="none" xmlns="http://www.w3.org/2000/svg">
<path d="M136.462 0.0595703C148.949 1.08863 160.334 5.47467 170.635 13.2275C181.821 4.7456 192.569 5.42546 203.785 13.1982C213.957 6.50446 223.811 0.179587 236.854 0.0595703H251.725C259.772 2.43739 267.848 5.01584 271.712 13.2383C277.037 24.5677 271.325 34.3087 264.47 43.1904C274.166 54.2203 278.964 71.2141 264.908 80.9951C263.289 82.124 257.379 84.3221 257.676 85.6709C257.795 86.1904 263.209 92.4852 264.222 94.0537C270.381 103.555 275.815 114.605 278.517 125.675C318.63 116.683 327.968 177.347 286.912 180.005C285.114 180.125 281.646 178.496 280.325 180.274C279.808 180.976 277.385 189.746 276.381 192.014C274.544 196.17 271.931 199.866 269.795 203.843C287.16 229.139 295.971 259.521 297.412 290.253C309.62 295.039 321.372 300.874 332.399 307.987C343.376 297.707 371.319 286.397 373.654 310.055C374.955 323.263 372.611 361.648 366.075 372.718C362.409 378.922 355.992 382.649 348.78 382.988C344.184 383.205 330.76 380.401 325.429 378.439C319.856 377.849 306.285 375.747 291.999 371.5C291.734 371.421 291.468 371.34 291.199 371.259C286.705 370.157 282.298 369.092 280.484 369.601C279.202 369.961 277.951 372.798 276.61 373.986C264.56 384.576 246.103 384.297 235.374 372.099C233.04 369.451 231.877 366.243 229.652 363.636C208.92 361.638 188.098 362.037 167.277 361.987L144.37 363.636C141.548 367.502 139.79 371.479 136.055 374.716C124.552 384.697 107.535 383.517 96.6274 373.267C95.356 372.078 95.0279 369.66 92.9321 369.49C83.0678 371.179 73.223 372.917 63.4282 374.955C32.1563 381.479 9.4176 396.615 2.72215 353.285C1.13272 343.014 -1.93634 312.383 1.71922 303.911C8.53383 288.116 32.7323 299.574 41.6333 307.977C52.491 300.983 64.0641 295.019 76.2231 290.593C77.1667 289.802 77.4645 278.324 77.8022 275.727C78.6569 269.128 80.5332 256.137 83.0571 248.566L82.9995 248C86.9995 236.833 96.0995 213.5 100.499 209.5C100.523 209.478 100.549 209.459 100.575 209.438C102.1 207.067 103.471 205.017 104.207 203.793C102.081 199.817 99.4584 196.12 97.6206 191.964C96.6174 189.696 94.2041 180.926 93.6772 180.225C92.356 178.446 88.8883 180.075 87.0903 179.955C76.1036 179.246 66.1304 173.17 62.147 162.57C53.8921 140.551 73.3422 120.39 95.4848 125.625C98.1769 114.555 103.611 103.505 109.78 94.0039C110.793 92.4353 116.217 86.1406 116.327 85.6211C116.634 84.2723 110.713 82.0642 109.094 80.9453C94.9486 71.1043 99.8462 54.2304 109.532 43.1406C97.9985 30.2225 95.4152 11.779 113.078 3.08691L122.277 0H136.403L136.462 0.0595703Z" fill="white"/>
<path d="M167.516 167.726C171.082 167.406 172.9 170.933 175.185 172.402C181.056 176.168 188.467 177.047 194.993 174.47C200.01 172.492 203.695 165.338 209.278 168.785C214.494 172.002 210.987 177.307 207.47 180.294C198.093 188.247 184.523 189.826 173.377 184.7C171.072 183.641 164.357 179.016 163.205 176.987C161.009 173.121 162.917 168.145 167.526 167.736L167.516 167.726Z" fill="black"/>
<path d="M150.42 132.567C158.725 131.478 158.516 146.365 152.417 147.404C143.675 148.882 142.463 133.616 150.42 132.567Z" fill="black"/>
<path d="M221.785 132.548C230.507 130.96 231.341 146.376 223.772 147.375C215.497 148.464 215.229 133.747 221.785 132.548Z" fill="black"/>
<path d="M136.463 0.0599449C148.95 1.089 160.334 5.47497 170.635 13.2278C181.821 4.74564 192.569 5.42502 203.785 13.1979C213.957 6.50402 223.812 0.179835 236.855 0.0599449H251.726C259.772 2.43776 267.849 5.01539 271.713 13.2378C277.037 24.5674 271.325 34.3085 264.471 43.1903C274.167 54.2202 278.965 71.2146 264.908 80.9956C263.289 82.1245 257.378 84.3225 257.676 85.6713C257.795 86.1908 263.209 92.485 264.223 94.0536C270.382 103.555 275.816 114.605 278.518 125.675C318.631 116.683 327.969 177.347 286.912 180.005C285.114 180.125 281.647 178.496 280.326 180.274C279.809 180.974 277.385 189.746 276.382 192.014C274.544 196.17 271.931 199.866 269.796 203.843C287.16 229.139 295.971 259.522 297.412 290.253C309.621 295.039 321.372 300.874 332.399 307.987C343.376 297.706 371.32 286.397 373.655 310.055C374.956 323.263 372.612 361.648 366.075 372.718C362.409 378.922 355.992 382.648 348.78 382.988C343.913 383.218 329.141 380.061 324.571 378.103C318.78 375.615 319.952 367.442 325.853 366.663C330.452 366.054 342.303 371.958 347.946 371.689C355.476 371.339 357.234 365.174 358.545 359.17C361.049 347.671 363.015 329.188 362.529 317.498C362.469 316.03 361.575 308.137 361.029 307.747C353.936 307.887 348.105 310.535 342.482 314.601C337.883 317.928 338.389 321.075 330.869 320.166C327.482 319.756 316.227 311.524 311.945 309.286C307.266 306.848 302.309 304.96 297.442 302.932C296.587 317.918 294.084 332.534 289.822 346.891C289.296 348.68 285.829 357.292 285.938 357.861C286.475 360.489 305.21 358.73 307.167 365.754C307.962 368.591 305.299 372.628 302.458 373.127C298.177 373.886 284.12 368.581 280.485 369.6C279.203 369.96 277.951 372.797 276.61 373.986C264.56 384.577 246.103 384.297 235.375 372.098C233.04 369.451 231.878 366.244 229.653 363.636C208.921 361.638 188.099 362.037 167.278 361.987L144.37 363.636C141.549 367.502 139.791 371.479 136.055 374.716C124.552 384.697 107.535 383.518 96.6277 373.267C95.3562 372.078 95.0284 369.66 92.9323 369.491C83.0679 371.179 73.2234 372.917 63.4286 374.955C32.1567 381.48 9.41794 396.616 2.72249 353.285C1.13306 343.015 -1.93652 312.383 1.71916 303.911C8.53382 288.115 32.7328 299.575 41.6336 307.977C52.4914 300.983 64.0644 295.019 76.2235 290.593C77.1672 289.804 77.4652 278.324 77.803 275.727C78.7864 268.134 81.1209 252.078 84.2401 245.554C86.8826 240.019 95.1476 241.748 95.5251 247.243C95.7237 250.1 92.0581 260.68 91.3131 264.627C87.2402 286.147 86.9322 308.457 91.8495 329.837C100.86 321.974 112.522 317.768 124.552 318.617C122.257 306.698 121.77 294.439 123.072 282.361C123.429 279.084 124.701 269.812 125.863 267.224C128.645 261.03 136.632 263.228 137.178 268.953C137.536 272.689 134.545 282.69 134.218 287.596C132.499 313.282 138.509 322.933 145.046 345.493C145.513 347.101 144.956 350.408 146.059 351.197C163.115 351.237 180.003 349.649 197.079 349.988C199.195 350.028 201.003 350.748 202.96 350.808C211.275 351.037 219.649 351.097 227.954 351.197C229.623 341.526 234.491 332.994 236.775 323.423C241.077 305.419 240.799 286.976 236.835 268.943C238.206 262.839 245.408 261.09 248.15 267.214C249.312 269.802 250.593 279.074 250.941 282.351C252.252 294.429 251.756 306.688 249.461 318.607C261.481 317.778 273.173 321.954 282.163 329.827C291.014 289.934 283.336 246.983 262.087 212.415C260.617 214.553 253.544 218.369 252.759 219.898C252.53 220.338 253.285 225.952 253.156 227.741C252.044 243.646 236.835 255.236 221.547 255.086C219.709 255.066 217.335 253.897 215.775 254.256C215.199 254.386 210.311 261.53 208.166 263.248C193.99 274.608 174.222 272.749 162.072 259.532C161.218 258.602 158.625 254.346 158.208 254.246C156.768 253.917 153.162 255.106 150.917 255.086C136.314 254.956 121.87 242.597 120.827 227.721C120.698 225.932 121.453 220.318 121.224 219.878C120.35 218.16 113.515 214.982 112.254 212.405C108.827 216.271 104.774 229.699 98.9821 229.379C96.737 229.259 93.7966 226.792 93.3992 224.564C92.684 220.517 101.813 207.779 104.207 203.793C102.081 199.816 99.4589 196.12 97.6211 191.964C96.6178 189.696 94.2039 180.924 93.6774 180.224C92.3561 178.446 88.8892 180.075 87.0912 179.955C76.1043 179.245 66.1306 173.171 62.1471 162.571C53.8921 140.551 73.3426 120.389 95.4853 125.625C98.1774 114.555 103.611 103.505 109.78 94.0036C110.793 92.4351 116.217 86.1409 116.327 85.6213C116.635 84.2726 110.714 82.0646 109.095 80.9456C94.9489 71.1047 99.8463 54.2302 109.532 43.1404C97.9986 30.2222 95.4158 11.7792 113.078 3.08716L122.277 0H136.403L136.463 0.0599449ZM164.725 43.4401C160.175 42.9206 153.748 43.0704 150.201 46.4074C147.271 49.1648 146.715 56.3183 139.989 52.9813C136.264 51.133 136.642 47.3265 138.022 43.8897C140.496 37.7353 149.248 32.5401 155.615 31.6709C157.473 31.4211 164.407 31.8108 164.725 31.4811C164.943 31.2513 165.122 25.5765 164.754 25.1469C162.4 22.4594 149.347 15.7156 145.582 14.4567C137.396 11.7292 115.303 8.26241 112.284 19.4921C109.731 28.9834 120.807 34.2785 121.164 42.5909C121.572 52.0722 104.019 63.0621 115.701 71.4444C128.853 80.8857 153.579 70.3753 164.725 61.0239V43.4401ZM209.338 61.0139C220.484 70.3653 245.209 80.8657 258.362 71.4344C270.034 63.0521 252.481 52.0622 252.898 42.5809C253.256 34.2685 264.342 28.9834 261.779 19.4821C258.759 8.26241 236.656 11.7192 228.481 14.4467C224.716 15.7056 211.662 22.4494 209.308 25.1369C208.931 25.5665 209.119 31.2413 209.338 31.4711C209.656 31.8008 216.59 31.4111 218.447 31.6609C224.815 32.5301 233.567 37.7253 236.04 43.8797C237.421 47.3165 237.799 51.123 234.073 52.9713C227.348 56.3183 226.792 49.1648 223.861 46.3974C220.325 43.0604 213.888 42.9006 209.338 43.4301V61.0139ZM184.602 20.4312C180.281 21.2205 176.775 25.5465 176.059 29.7826C175.235 34.6781 175.265 51.4228 175.95 56.4581C177.649 69.0166 196.007 69.0965 198.013 57.0876C198.838 52.1521 198.818 35.4774 198.122 30.4121C197.189 23.5284 191.437 19.1824 184.602 20.4312ZM207.003 73.4825C206.884 73.2827 203.368 71.1246 203.119 71.1646C202.662 71.2445 197.735 75.2509 195.401 76.16C185.645 79.9665 178.314 77.269 170.407 71.1646C165.42 75.5306 159.331 78.2481 153.539 81.2554C159.182 96.5313 174.351 106.852 190.006 109.24C185.765 93.2543 190.066 77.4289 207.848 91.2961C208.255 90.7566 206.407 83.0237 206.338 81.2254C206.268 79.427 207.202 73.8022 207.013 73.4725L207.003 73.4825ZM297.561 140.931C293.657 137.034 287.299 136.005 282.004 137.094C278.259 137.863 276.68 141.92 271.822 138.763C268.534 136.614 267.352 127.283 265.852 123.077C262.037 112.407 255.322 99.6185 247.633 91.2961C241.444 84.5923 236.954 86.5005 228.659 84.2026C225.083 83.2135 221.517 81.8748 218.259 80.0864C216.639 87.7494 226.841 97.6103 218.497 103.145C212.954 106.822 205.782 102.736 200.417 100.278C199.93 106.912 208.335 115.064 201.54 120.489C197.904 123.397 194.179 122.358 189.957 121.628C175.026 119.051 158.536 110.369 149.536 97.97C147.986 95.832 143.009 86.0409 142.413 85.6613C141.43 85.0319 132.082 86.4406 130.562 87.2498C126.211 89.5777 116.525 104.654 114.022 109.499C109.224 118.751 108.27 126.564 104.873 135.446C101.475 144.327 95.3065 137.484 90.7469 136.904C66.7267 133.897 65.9617 167.456 87.0018 168.385C92.1177 168.615 97.4423 163.899 101.575 167.156C103.701 168.835 105.866 181.174 107.446 185.18C118.234 212.455 148.294 222.955 175.473 224.454C206.189 226.152 247.504 221.357 263.746 191.274C268.017 183.362 267.948 177.077 270.67 169.824C273.392 162.571 279.282 167.426 283.494 168.165C298.842 170.843 308.647 152.03 297.551 140.941L297.561 140.931ZM241.305 226.662C211.692 237.921 175.722 239.81 145.224 230.928C141.857 229.949 136.552 227.051 133.85 226.652C132.549 226.452 132.718 226.672 132.708 227.791C132.678 234.834 141.44 242.118 148.046 243.037C154.652 243.956 160.89 240.149 166.125 245.045C167.953 246.753 168.678 249.431 170.268 251.349C178.95 261.829 195.599 261.41 204.123 250.959C205.424 249.361 206.089 246.933 207.54 245.425C212.755 240 219.431 243.916 225.997 243.047C233.587 242.028 241.295 234.644 241.295 226.662H241.305ZM76.9785 302.952C71.932 304.73 66.8558 306.818 62.0975 309.286C57.7961 311.514 46.5807 319.756 43.1734 320.166C35.7229 321.065 35.862 317.778 31.1235 314.291C28.2626 312.193 25.3122 310.445 21.9247 309.336C20.4048 308.836 13.3518 306.928 12.6365 308.137C12.3981 308.537 11.5935 315.49 11.514 316.739C10.8882 327.539 13.163 353.305 16.3518 363.536C17.7426 367.982 21.8353 371.758 26.693 371.669C33.2593 371.549 48.5675 366.273 56.1371 364.625C66.6472 362.337 77.2864 360.609 87.7965 358.301C85.3527 349.349 82.0249 340.647 80.1573 331.505C78.2897 322.364 76.9983 312.443 76.9586 302.942L76.9785 302.952ZM127.473 330.686C120.449 330.257 114.012 330.376 107.476 333.234C103.651 334.902 95.0979 341.027 95.8529 345.582C96.4489 349.169 102.3 362.387 104.833 365.035C113.019 373.567 127.81 370.919 132.648 360.049C137.526 349.089 129.221 341.246 127.463 330.686H127.473ZM246.59 330.686C244.842 341.256 236.527 349.089 241.405 360.049C246.282 371.009 261.074 373.527 269.219 365.035C271.882 362.257 277.455 349.419 278.19 345.592C278.845 342.176 274.812 338.689 272.15 336.611C264.729 330.806 255.699 329.997 246.59 330.686Z" fill="black"/>
</svg>
