<svg width="43" height="43" viewBox="0 0 43 43" fill="none" xmlns="http://www.w3.org/2000/svg">
<path d="M33.1738 0.00223958C34.0215 0.185885 33.7572 1.35047 32.9521 1.43333L5.58664 1.42214C3.59453 1.4994 1.6349 3.16341 1.43333 5.18016L1.26089 5.33469L1.42885 5.41083V9.97958L1.26089 10.0792L1.34151 9.91127H41.6361L41.7414 10.0792L41.5734 10.002V5.51721L41.7414 5.41755L41.5678 5.22943C41.2464 2.16792 38.1569 1.0974 35.4784 1.45797C34.5579 1.51172 34.2152 0.244115 35.1055 0H38.1289C40.5947 0.0526302 42.8914 2.33365 43 4.78711V31.8301C42.9765 32.6733 42.7559 33.306 42.3091 34.0137C40.5902 36.7336 38.3249 36.8591 35.5041 36.8232C35.4 37.1715 35.2398 37.5041 35.0528 37.8221C37.2678 39.0953 37.1715 42.6193 34.4336 43.0011H33.3418C32.4796 42.9653 31.8816 42.4267 31.3049 41.8421C30.0351 42.8645 28.6096 42.6697 27.744 41.2498C26.9187 39.7425 26.0587 38.2599 25.1651 36.7997L10.1061 36.7863C9.54174 36.718 9.28643 36.2902 9.41521 35.7471C9.4768 35.4873 9.72427 35.0652 9.95271 35.3574L10.0109 35.1895C14.7958 35.1805 19.5796 35.1861 24.3644 35.2062L24.5246 35.3574L24.2748 35.2488C24.1058 34.849 23.8829 34.4907 23.6052 34.1738L10.1979 34.1592C9.19349 34.0898 8.18456 33.222 7.68849 32.3754C7.54964 32.138 7.23049 31.5736 7.55859 31.4516C7.49365 31.4437 7.40406 31.4281 7.39062 31.3766C7.33016 31.1526 7.36151 29.4203 7.39062 29.0967L7.55859 28.9746C7.55076 29.0407 7.5306 29.1381 7.48357 29.1426C7.12523 29.1773 5.48698 29.2086 5.20367 29.1426L5.08161 28.9746C4.80279 29.3587 4.01781 28.8066 3.71211 28.5524C3.15893 28.0922 2.43555 27.1113 2.3706 26.3834C2.2743 25.3051 2.21719 24.2177 2.24742 23.1304C2.38628 20.5011 2.42547 17.873 2.36276 15.2448C2.60128 13.7477 3.82745 12.5652 5.34029 12.4274L26.361 12.4353C27.3072 12.5607 28.2098 13.2807 28.7372 14.059C28.913 14.3177 29.3296 14.9918 28.9757 15.1597C29.0418 15.1676 29.1392 15.1877 29.1437 15.2348C29.1784 15.5931 29.2098 17.2314 29.1437 17.5147L28.9757 17.6367C28.9836 17.5718 29.0037 17.4743 29.0508 17.4688C29.4729 17.415 30.9174 17.4083 31.3307 17.4688L31.4527 17.6367C31.6196 17.3041 32.2164 17.6401 32.4751 17.8002C34.2242 18.8864 34.3798 20.799 34.2914 22.743C34.166 25.6175 34.1268 28.4909 34.1727 31.3631C34.0249 32.2601 33.5355 33.1514 32.7181 33.5859C33.4101 33.8737 34.0797 34.204 34.7281 34.5769C34.9543 34.7348 35.3574 35.082 35.232 35.3574C35.1738 35.1155 36.4907 35.1536 36.5847 35.1895L36.7012 35.3574L36.5332 35.2779V11.4443L36.7012 11.3401L36.6205 11.5081H1.36503L1.25977 11.3401L1.42773 11.3984V31.0977L1.25977 31.2019L1.43333 31.39C1.74799 34.428 4.81398 35.5142 7.47237 35.1659C8.43763 35.0338 8.85531 36.2185 8.06138 36.7247C7.79039 36.8983 5.14992 36.8411 4.7188 36.7516C2.2463 36.2365 0.119818 34.4056 0 31.7472V4.78935C0.0929427 2.43555 2.38628 0.0100781 4.78711 0.00223958H33.1738ZM41.7402 11.3401H37.9609V13.1878C39.0583 12.3815 40.6451 12.3827 41.7402 13.1878V11.3401ZM27.7148 17.639V15.5808C27.7148 14.6984 26.6835 13.8451 25.8235 13.8608C18.9222 13.928 11.9874 13.7186 5.10401 13.9672C4.27201 14.2292 3.85656 14.9078 3.78042 15.751C3.48927 18.9547 3.99318 22.5784 3.78042 25.8258C3.76474 26.6858 4.61802 27.7171 5.50042 27.7171H7.55859V20.201C7.55859 19.2526 9.17221 17.639 10.1207 17.639H27.7148ZM39.7089 13.8787C38.6216 13.9571 38.0382 14.8115 37.9576 15.8294C37.8781 16.8327 37.8277 20.6131 38.0875 21.416C38.6205 23.0666 41.1098 23.0599 41.6316 21.3511C41.8735 20.5594 41.8197 16.8148 41.7425 15.8294C41.6529 14.6984 40.9228 13.7914 39.7089 13.8787ZM23.0957 32.7561C22.8941 30.9432 24.3006 29.8033 26.034 30.4483C27.5771 31.0227 29.137 32.1649 30.7047 32.755C31.9253 32.7304 32.6632 31.9936 32.7573 30.7853C33.0103 27.5514 32.5703 23.9837 32.7438 20.715C32.6184 19.5583 31.8469 18.9278 30.7002 18.8954C23.8325 18.9872 16.9234 18.7296 10.0792 19.0264C9.28755 19.3097 8.8945 19.9704 8.8206 20.7912C8.53057 23.9949 9.03336 27.6185 8.8206 30.8659C8.80492 31.7259 9.6582 32.7573 10.5406 32.7573H23.0957V32.7561ZM41.7402 23.3499C40.6428 24.1561 39.0561 24.155 37.9609 23.3499V35.2757C39.4301 35.0898 40.8086 34.0394 41.3606 32.671C41.4726 32.3945 41.7402 31.5412 41.7402 31.287V23.3499ZM24.8347 31.5983C24.5178 31.6923 24.2256 32.3116 24.4618 32.6072C25.9814 35.0383 27.2591 37.7079 28.7921 40.1188C29.0978 40.6003 29.277 41.1837 29.9791 40.9396C30.4079 40.7895 30.6431 39.9105 31.2769 39.9788C31.8805 40.0438 32.6845 41.3595 33.3396 41.6182C34.437 42.0515 35.4022 41.1053 35.0663 39.9754C34.8781 39.3439 33.2321 38.4458 33.1973 37.8243C33.1626 37.2028 34.587 36.6575 33.9678 35.8669L25.5066 31.6464C25.3084 31.5658 25.0363 31.5389 24.8336 31.5983H24.8347Z" fill="#FF6002"/>
<path d="M19.2089 24.5437C19.9267 24.3813 19.9681 25.1203 20.7867 25.1203C21.5179 25.1203 21.5739 24.64 21.8953 24.5425C22.5963 24.3309 23.0946 24.996 22.6366 25.6209C21.8505 26.6948 19.6355 26.6948 18.8965 25.5761C18.6434 25.1931 18.7252 24.6534 19.2089 24.5437Z" fill="#FF6002"/>
<path d="M16.0141 23.7128C16.387 24.1193 16.3982 25.9915 15.4486 25.8348C14.7376 25.7183 14.7868 24.6288 14.8854 24.0834C14.9839 23.5381 15.639 23.3029 16.0141 23.7128Z" fill="#FF6002"/>
<path d="M26.5122 23.7128C26.8851 24.1193 26.8963 25.9915 25.9467 25.8348C25.2356 25.7183 25.2849 24.6288 25.3834 24.0834C25.482 23.5381 26.1371 23.3029 26.5122 23.7128Z" fill="#FF6002"/>
<path d="M12.7455 2.54311C17.6434 1.87347 17.6367 9.4679 12.7455 8.79826C9.32003 8.33019 9.30771 3.01342 12.7455 2.54311ZM13.0836 3.80063C10.3424 4.09738 11.3614 8.56087 14.1094 7.35037C15.938 6.54524 15.2101 3.56995 13.0836 3.80063Z" fill="#FF6002"/>
<path d="M20.3041 2.54311C25.202 1.87347 25.1953 9.4679 20.3041 8.79826C16.8786 8.33019 16.8663 3.01342 20.3041 2.54311ZM20.6422 3.80063C17.901 4.09738 18.92 8.56087 21.668 7.35037C23.4966 6.54524 22.7687 3.56995 20.6422 3.80063Z" fill="#FF6002"/>
<path d="M5.10289 2.54311C9.95383 1.88019 10.0434 9.29433 5.24958 8.81954C1.69313 8.46792 1.63042 3.0179 5.10289 2.54311ZM5.52729 3.80063C3.15333 3.96972 3.31458 7.55977 5.66839 7.55865C8.15992 7.55865 8.11737 3.61475 5.52729 3.80063Z" fill="#FF6002"/>
</svg>
