<svg width="53" height="53" viewBox="0 0 53 53" fill="none" xmlns="http://www.w3.org/2000/svg">
<path d="M5.58328 43.7096C8.44879 43.2596 10.4782 46.3983 8.7123 48.7033C6.55869 51.5135 2.18662 49.214 3.19927 45.8793C3.49727 44.8994 4.55407 43.8711 5.58328 43.7096ZM6.19584 45.2748C4.42439 45.2886 4.10431 47.9331 5.80954 48.2961C8.13561 48.7903 8.38808 45.2582 6.19584 45.2748Z" fill="#FF6002"/>
<path d="M33.5471 0C43.5578 0.161489 52.7089 9.29871 53 19.2544V22.9811L52.5157 25.7567C52.2053 26.5324 51.9584 29.3937 50.6229 28.8264C49.7592 28.4606 50.5511 26.9065 50.7167 26.2329C53.2718 15.7513 47.7229 5.19938 37.1921 2.30639C22.1775 -1.81778 8.67919 12.2856 13.4251 27.1177C18.0359 41.5247 37.2335 45.3217 46.8924 33.5882C47.3007 33.0914 48.4527 31.2197 48.7604 31.0058C49.3702 30.5793 50.2076 31.0141 50.0641 31.7829C50.0048 32.1003 49.3343 32.9989 49.1094 33.3205C43.0114 42.0671 31.13 44.5916 21.7857 39.5606C21.4808 39.3963 20.2143 38.5074 20.0432 38.5061C19.908 38.5061 19.8101 38.6165 19.7301 38.7117L16.5845 42.7075C15.8078 43.3493 14.9786 42.6178 15.289 41.7206L18.6402 37.435L15.507 34.375C12.5284 36.8663 9.40626 39.1451 6.18205 41.3038C4.35403 42.5267 2.29009 43.2375 1.72582 45.6447C0.597278 50.4604 6.82358 53.5769 9.9995 49.5742C10.888 48.4549 11.9324 45.9677 12.8995 45.1257C13.6845 44.4425 14.5827 45.1947 14.0763 46.2009C13.4665 47.4155 11.255 50.7861 10.2685 51.6032C9.38832 52.332 8.36601 52.7253 7.26644 53H5.30046C2.61431 52.9048 0.118544 50.4079 0.0233491 47.7206C0.0771549 47.0939 -0.0497716 46.3638 0.0233491 45.7537C0.406888 42.5529 3.15788 41.3991 5.45774 39.8559C8.59227 37.7511 11.6551 35.5427 14.4985 33.0513C14.544 32.865 13.6252 31.54 13.4569 31.2266C6.31587 17.9059 15.0062 1.09591 30.1325 0H33.5471Z" fill="#FF6002"/>
<path d="M30.6292 4.68869C46.5061 3.51962 54.6625 23.3234 42.4954 33.6407C31.4708 42.9891 14.6406 34.2728 15.5443 19.928C15.7388 16.8473 17.5985 11.8232 20.0005 9.79007C20.5592 9.31665 21.3967 9.63135 21.4408 10.3077C21.467 10.7079 20.1302 12.131 19.806 12.5975C14.3247 20.4649 17.731 31.5317 26.6655 34.8884C38.2931 39.2569 49.7592 28.3847 46.0384 16.5422C43.4433 8.28147 34.1224 4.07448 26.1316 7.43538C25.6032 7.65759 24.8237 8.20831 24.3408 8.34082C23.5158 8.5658 22.8218 7.46298 23.9573 6.70937C25.5535 5.64934 28.7225 4.83086 30.6306 4.69007L30.6292 4.68869Z" fill="#FF6002"/>
<path d="M39.0034 18.2067C39.4882 17.6156 40.2023 17.7809 40.4462 18.4942C40.5624 18.8349 40.2557 20.155 40.0298 20.4304C39.6846 20.8502 38.8886 20.7015 38.6724 20.2335C38.5843 20.0418 38.8815 18.3545 39.0034 18.2067Z" fill="#FF6002"/>
<path d="M27.9902 17.6928C27.7749 18.439 26.8376 18.5955 26.4621 17.9535C26.292 17.6638 26.5651 16.4524 25.6817 16.6027C24.9486 16.7273 25.1531 18.0229 24.142 17.7756C22.8997 17.4703 23.7924 15.7803 24.5122 15.3227C26.1323 14.2952 28.5146 15.8687 27.9891 17.6935L27.9902 17.6928Z" fill="#FF6002"/>
<path d="M29.4484 22.7172C28.9214 21.8152 29.2075 20.6669 30.3224 20.796C31.1385 20.8923 31.3065 22.754 33.1421 22.1985C33.804 21.9975 34.3561 21.1148 35.0499 22.0862C35.6442 22.919 35.0187 23.5591 34.3084 23.9523C32.7207 24.8327 30.3905 24.3277 29.4501 22.7175L29.4484 22.7172Z" fill="#FF6002"/>
</svg>
