<svg width="384" height="379" viewBox="0 0 384 379" fill="none" xmlns="http://www.w3.org/2000/svg">
<path d="M0.01 238.604C1.35 236.674 1.93 234.374 3.14 232.364C8.36 223.714 23.93 200.134 30.46 193.684C33.58 190.604 38.46 187.774 42.76 186.834C35.62 162.134 46.13 136.324 67.57 122.794C69.12 121.814 76.26 118.564 76.49 118.034C76.77 117.414 78.04 109.774 77.92 109.344C77.69 108.514 73.5 106.274 72.12 104.614C67.63 99.2037 69.53 94.2437 67.42 90.5637C66.36 88.6936 62.84 87.2437 61.21 85.5237C55.26 79.2737 55.47 68.7037 61.21 62.4337C62.8 60.6936 66.33 59.3336 67.43 57.4036C68.73 55.1236 67.99 52.7337 68.59 50.3136C70.45 42.7836 77.31 37.2936 85.14 37.5636C89.41 37.7136 93.28 40.8036 96.37 40.6637C98.74 40.5536 101.7 38.4236 104.22 37.9536C112.44 36.4036 120.8 40.8537 123.24 49.0037C125.96 58.0737 122.51 55.5936 130.55 61.9536C131.45 62.6636 131.8 64.4436 132.53 64.6236C134.23 65.0436 137.06 64.3736 139.12 64.6236C141.27 64.8837 146.4 66.4137 147.96 66.0037C149.13 65.6937 155.29 58.7836 157.26 57.2436C180.97 38.5937 216.9 43.0337 236.05 66.0037C271.05 57.5937 305.4 82.5437 307.63 118.484C335.38 128.584 349.47 160.254 341.31 188.294C347.46 190.344 351.94 194.704 355.82 199.684C363.56 209.594 375.39 226.154 381.63 236.874C382.74 238.784 382.93 240.604 384.01 242.364V249.114C383.54 253.424 382.19 255.944 378.95 258.834C377.09 260.494 373.62 262.386 371 263C367.12 263.386 360.57 263.464 359.26 261.114C359.85 261.114 360.75 261.274 360.76 261.634C361.29 289.124 360.91 317.534 360.27 345.014C357.32 363.164 342.26 377.454 323.7 378.154H61.76C42.61 376.304 27.45 360.904 26.23 341.684L26.26 262.024L27.76 261.114C27.69 261.684 27.56 262.464 27.1 262.614C25.56 263.104 15.9 263.214 15.38 261.114C13.7 263.954 7.02 259.264 4.84 257.354C1.44 254.384 0.73 251.094 0 246.864V238.614L0.01 238.604Z" fill="black"/>
<path d="M286.78 24.3736C288.4 22.7436 291.74 21.6836 292.7 19.4236C293.6 17.3136 293.15 14.7136 293.77 12.2436C295.76 4.38364 303.72 -0.646362 311.64 0.103638C315.28 0.453638 318.22 3.29364 321.37 3.16364C323.92 3.05364 326.36 0.753638 329.06 0.283638C337.84 -1.22636 345.97 3.38364 348.55 11.9436C349.31 14.4436 349.14 17.7836 349.9 19.5936C350.52 21.0536 354.76 23.5336 356.28 25.2136C361.7 31.2136 362.15 40.0036 357.34 46.5536C355.45 49.1236 350.93 50.9136 350.06 52.7736C349.11 54.8136 349.28 58.5436 348.55 61.0136C346.54 67.7936 339.83 72.8936 332.64 72.9036C328.09 72.9036 324.61 69.5236 320.65 69.8036C318.15 69.9836 315.7 72.0236 312.81 72.5136C304.37 73.9336 295.58 68.5736 293.6 60.1536C293.07 57.9236 293.6 55.7036 292.71 53.5436C291.77 51.2636 287.26 48.9936 285.39 46.6136C280.25 40.0836 280.95 30.2436 286.8 24.3636L286.78 24.3736Z" fill="black"/>
<path d="M348.01 341.724C348.01 350.744 335.83 365.344 326.63 365.344H147.01V210.844C156.89 221.864 163.91 236.774 173.28 247.954C179.64 255.554 187.5 260.324 197.61 261.124C222.69 263.114 250.32 259.554 275.67 261.124C283.39 261.024 284.73 251.694 277.09 249.884C251.64 248.154 223.47 252.044 198.36 249.864C191.27 249.254 186.36 246.084 181.95 240.774L152.26 197.334H333.38C337.51 197.334 344.23 203.234 346.82 206.394C355.87 217.474 363.25 231.894 372.18 243.294C373.43 245.444 372.49 248.114 370.33 249.274C346.43 250.584 322.2 249.414 298.18 249.874C290.82 251.014 293.51 261.084 297.39 261.084H348.01V341.724Z" fill="#FEFEFE"/>
<path d="M130.51 197.354L97.5098 244.974C94.6698 247.864 91.4698 249.524 87.4198 249.884C65.2798 251.854 40.1698 248.404 17.7098 249.784C12.9198 249.354 10.0798 244.784 11.8398 240.304C20.1898 229.094 27.6198 214.764 36.4598 204.164C46.7098 191.874 65.0498 199.514 79.0998 197.304C85.4398 196.304 85.5698 187.564 79.7298 186.254C75.2998 185.264 55.7298 187.044 54.1098 185.994C47.0498 164.584 56.5098 141.274 76.2398 130.694C79.1198 129.144 86.1798 127.424 87.3698 124.574C89.6198 119.154 85.1798 109.794 93.7398 107.694C98.4198 106.544 100.01 109.274 104.22 110.004C112.4 111.434 120.81 107.074 123.25 98.9536C124.06 96.2636 123.84 92.1136 125.35 89.8036C126.36 88.2536 129.58 87.0536 131.26 85.2136C133.32 82.9636 135.3 76.4636 135.71 76.1736C138.23 74.3636 148.09 79.2436 152.48 77.9336C153.8 77.5436 160.75 68.7936 163.15 66.8536C179.87 53.4036 204.71 53.6436 221.27 67.2036C223.4 68.9536 230.53 77.6336 231.54 77.9336C235.25 79.0436 242.05 76.1336 246.36 75.8136C268.97 74.1336 290.54 89.2936 295.3 111.674C296.14 115.624 295.66 122.634 297.41 125.314C298.91 127.614 306.1 129.714 309.23 131.494C327.97 142.104 336.95 165.484 329.9 186.004L100.86 186.084C92.1798 187.094 95.4398 197.354 99.3798 197.354H130.51Z" fill="#FEFEFE"/>
<path d="M135.76 365.354H60.3898C51.9198 365.354 39.0098 351.624 39.0098 343.234V261.114H90.3898C94.4298 261.114 103.47 255.484 106.15 252.124L135.77 210.114V365.364L135.76 365.354Z" fill="#FEFEFE"/>
<path d="M122.779 70.0836C128.299 76.0736 119.269 79.2536 116.389 83.1136C112.379 88.4936 114.279 93.0436 112.089 96.8136C109.099 101.964 102.439 96.4336 97.9094 96.0736C91.1694 95.5436 90.2494 98.3236 85.6794 98.9536C78.0594 100.004 79.9894 90.2936 77.2794 85.2036C75.0594 81.0336 68.5394 78.3836 68.1894 74.7436C67.6894 69.5436 75.0294 67.4336 77.5594 62.2836C79.5094 58.3036 78.6594 49.5536 83.6694 48.8336C86.1294 48.4836 90.3194 51.5936 94.0994 51.8836C101.079 52.4236 102.779 49.3036 106.949 48.8636C114.119 48.1136 112.579 57.9736 114.889 62.5936C117.199 67.2136 120.329 67.4336 122.769 70.0836H122.779Z" fill="#FEFEFE"/>
<path d="M299.74 43.8736C296.78 40.8636 291.59 40.4436 293.41 34.3836C293.89 32.7936 300.4 28.6536 302.13 25.8536C305 21.2436 303.27 12.2436 308.66 11.3436C312.55 10.6936 317.36 15.4736 324.94 14.1736C328.89 13.4936 335.44 7.64363 337.75 15.2236C339.38 20.5936 337.62 24.0836 342.72 29.0036C345 31.2036 349.1 31.9536 349.49 35.7936C349.97 40.5036 345.75 40.9836 343.09 43.5636C336.79 49.6636 339.85 55.0036 337.08 59.3036C333.75 64.4636 327.68 58.9336 322.91 58.5736C321.11 58.4336 318.83 58.4736 317.06 58.7836C313.27 59.4336 307.73 64.7636 305.07 58.4236C302.96 53.3836 305.03 49.2536 299.74 43.8736Z" fill="#FEFEFE"/>
<path d="M245.85 286.014C268.43 284.014 270.78 320.494 250.81 323.294C224.72 326.944 223.65 287.974 245.85 286.014Z" fill="black"/>
<path d="M187 301.364C184.21 298.814 184.08 285.914 187.97 283.694C197.01 278.544 197.58 293.314 196.35 298.814C195.48 302.714 190.05 304.144 187 301.364Z" fill="#010101"/>
<path d="M299.47 284.564C302.05 281.994 307.79 282.744 308.85 286.384C309.6 288.944 309.49 299.514 307.56 301.284C298.83 309.274 294.44 289.574 299.46 284.564H299.47Z" fill="#020202"/>
<path d="M207.28 104.624C210.87 101.034 216.45 99.3836 221.44 100.054C224.79 100.504 227.53 102.934 230.64 102.934C233.75 102.934 235.68 100.784 238.47 100.194C246.81 98.4236 255.39 103.564 257.8 111.694C258.53 114.164 258.37 117.894 259.31 119.934C260.19 121.824 264.89 123.674 266.88 126.614C270.84 132.444 270.91 139.484 267.19 145.414C265.31 148.414 259.87 151.404 259.15 153.124C258.39 154.934 258.56 158.274 257.8 160.774C255.5 168.394 248.3 173.134 240.4 172.604C236.54 172.344 232.92 169.414 229.9 169.554C227.35 169.664 224.91 171.964 222.21 172.424C213.5 173.914 204.89 168.554 202.84 159.904C202.31 157.674 202.84 155.464 201.94 153.304C201 151.024 196.49 148.754 194.62 146.374C190.25 140.814 189.92 132.774 193.93 126.904C195.86 124.084 200.94 121.574 201.94 119.164C204.01 114.174 201.85 110.064 207.27 104.624H207.28Z" fill="black"/>
<path d="M247.26 297.294C254.96 297.044 256.3 313.064 246.37 312.164C239.26 311.524 239.89 297.534 247.26 297.294Z" fill="#FDFDFD"/>
<path d="M208.99 128.834C214.28 123.454 212.2 119.324 214.32 114.284C217.02 107.834 222.81 113.274 226.31 113.924C234.22 115.394 238.62 110.714 242.57 111.094C248.64 111.684 246.89 119.914 248.89 124.344C251.41 129.934 259.27 131.924 258.76 136.894C258.37 140.734 254.27 141.494 251.99 143.684C246.89 148.604 248.65 152.094 247.02 157.464C244.72 165.044 238.16 159.194 234.21 158.514C226.63 157.214 221.82 161.994 217.93 161.344C212.54 160.434 214.26 151.444 211.4 146.834C209.67 144.044 203.16 139.904 202.68 138.304C200.86 132.244 206.04 131.824 209.01 128.814L208.99 128.834Z" fill="#FEFEFE"/>
</svg>
