<svg width="44" height="38" viewBox="0 0 44 38" fill="none" xmlns="http://www.w3.org/2000/svg">
<path d="M43.0197 11.3214V13.7569L42.5382 16.0883C42.3927 16.5989 41.6805 18.5642 41.2807 18.7769C40.6637 19.1062 40.2158 18.5832 40.3524 17.9326C40.4431 17.5004 41.0075 16.5866 41.1945 16.0043C43.817 7.86233 36.6784 -0.0366822 28.3202 1.70235C21.5365 3.11329 17.6766 10.5084 20.4145 16.9214C23.429 23.9817 32.4231 25.8876 38.1509 20.7713C38.6324 20.3413 39.2718 19.1924 39.9571 19.8027C40.5842 20.3614 39.5361 21.2618 39.1173 21.6548C37.2327 23.4218 35.2943 24.1889 32.8207 24.7645C32.7266 24.7857 32.6505 24.7891 32.6102 24.8944C32.7154 25.1038 32.9685 26.1754 33.0457 26.2527C33.0726 26.2795 33.4534 26.3814 33.609 26.4878C34.1275 26.8406 34.3537 27.5158 34.2865 28.1205C35.703 27.9301 37.2696 28.2985 36.9538 30.0734C36.9202 30.2638 36.7523 30.4832 36.7411 30.6109C36.7276 30.7721 36.9337 30.9782 36.9684 31.1898C37.049 31.6825 36.9549 32.2212 36.638 32.612C36.5126 32.7665 36.2226 32.9154 36.1767 32.9905C36.0222 33.2446 36.2596 33.837 35.8833 34.3768C35.2517 35.2816 34.1644 35.0654 33.2048 35.1001C32.8823 36.4025 31.758 37.2557 30.4557 37.4315L11.6521 37.4439C10.6141 37.3229 10.9142 36.0979 11.5704 36.0979H18.3317V34.2502C17.4683 34.5179 16.5691 34.7004 15.6722 34.8247C13.6006 35.1113 10.6163 35.2715 8.54471 35.0934C7.79781 35.0296 7.02963 34.5772 6.91765 33.781C6.88518 33.5515 6.96132 33.2346 6.89637 33.0464C6.86278 32.9479 6.52908 32.7654 6.40591 32.6131C6.089 32.2223 5.99382 31.6825 6.07557 31.1909C6.10916 30.9849 6.29169 30.8046 6.304 30.668C6.31632 30.5314 6.10916 30.2257 6.07781 30.0028C5.83257 28.2537 7.37341 27.9469 8.75747 28.1205C8.64997 25.4867 11.529 26.293 13.2534 26.1922C15.8737 26.0399 18.3563 25.0153 20.5142 23.5842L19.6754 22.6996C19.5881 22.6604 18.2723 23.5316 18.0249 23.657C14.4259 25.4767 10.0889 25.4173 6.5414 23.5125C5.3533 24.816 4.7419 26.5763 4.63776 28.3265C4.54705 29.8371 4.45747 33.0924 4.67919 34.5066C5.05432 36.9097 7.70934 35.781 9.20091 36.1158C9.91869 36.277 9.959 37.3207 9.12924 37.436C8.41481 37.5357 6.24914 37.501 5.58174 37.2983C4.52913 36.9792 3.49445 35.8168 3.38247 34.7105C3.59187 31.5011 2.81921 27.9503 4.09802 24.9302C4.43619 24.1318 4.92106 23.461 5.39697 22.7455C2.56166 20.9706 0.217937 17.2204 0.103718 13.8409C0.0746038 13.711 0.046609 13.571 0.019734 13.421C0.0645257 12.7133 -0.0418545 11.9361 0.019734 11.2374C-0.0116201 7.77946 2.04544 4.5847 4.76429 2.57915C9.89966 -1.21022 17.1727 -0.80038 21.541 3.9565C26.7895 -1.79587 36.2596 -1.17775 40.7891 5.17259C42.069 6.9665 43.0444 9.08626 43.0197 11.3214ZM11.2568 1.52095C3.87966 2.14355 -0.702531 10.1478 2.18877 16.9214C5.37906 24.3938 15.2299 25.9974 20.6743 20.0031C17.4112 15.6303 17.4415 9.53306 20.6597 5.14907C18.2746 2.46941 14.8357 1.21972 11.2568 1.52207V1.52095ZM21.4895 21.0692L20.6821 21.8608L21.5511 22.6525L22.3607 21.7791L21.4906 21.0692H21.4895ZM31.6818 26.1866C31.543 25.957 31.3493 25.1015 31.1219 25.0243C28.3404 25.0343 25.6798 24.2695 23.4077 22.6794C20.7303 25.5046 16.9846 27.4049 13.0362 27.4464V33.7452C16.6251 33.6388 20.1469 32.6108 23.2241 30.7901C25.1613 29.6434 26.7357 28.2269 28.2799 26.6076C28.6483 26.2213 28.9708 25.4207 29.627 25.676C30.0503 25.8417 29.9674 26.1855 30.001 26.1855H31.6807L31.6818 26.1866ZM30.0022 27.4464L29.2474 27.49C27.9373 28.8595 26.561 30.1428 24.9888 31.21C24.3752 31.6265 23.7044 31.9524 23.1143 32.4003C25.3281 33.1786 27.6439 33.6836 30.001 33.7452V27.4464H30.0022ZM11.7775 27.5303H10.2233C10.0755 27.5303 10.0822 27.9995 10.0967 28.1182C10.8168 27.8909 11.38 28.808 10.7675 29.2492C10.3073 29.5807 8.31403 29.2481 7.622 29.3791C7.35101 29.4306 7.20768 29.7016 7.44619 29.8864C7.78661 30.1495 8.49432 29.9984 8.21101 30.8931C8.05312 31.3903 7.04979 31.21 7.36221 31.7284C7.61304 32.1439 8.9008 31.5515 9.07101 32.2917C9.29497 33.2659 8.25244 33.061 8.17406 33.3813C8.11023 33.4955 8.32635 33.743 8.37562 33.743H11.7775V27.5281V27.5303ZM32.8162 27.5303C32.4836 27.4273 31.6594 27.6065 31.2619 27.5303V33.7452H34.6638C34.7131 33.7452 34.9292 33.4966 34.8654 33.3835C34.7926 33.0879 34.0524 33.2368 33.9505 32.6926C33.7109 31.4183 35.4108 32.1708 35.6773 31.7307C35.9897 31.2111 34.9864 31.3925 34.8285 30.8953C34.5452 30.0006 35.2529 30.1518 35.5933 29.8886C35.8329 29.7039 35.6885 29.4329 35.4175 29.3814C34.7266 29.2492 32.7322 29.5818 32.272 29.2515C31.6583 28.8103 32.2227 27.892 32.9427 28.1205C32.9439 27.9615 32.9875 27.5852 32.8162 27.5326V27.5303ZM19.5881 33.8292V36.0968H30.6315C30.8902 36.0968 31.805 35.4551 31.7647 35.0889C28.2418 35.1729 24.7761 34.5638 21.5544 33.1573L19.587 33.8281L19.5881 33.8292Z" fill="#FF6002"/>
<path d="M0.103718 13.8409L0.019734 13.8409L0.019734 13.421C0.155229 13.4926 0.0992392 13.7065 0.103718 13.8409Z" fill="#FF6002"/>
<path d="M22.7224 10.5924C23.8355 9.27886 26.1781 10.4233 25.7839 12.3527C25.6719 12.9036 24.981 13.6763 24.4155 13.1713C23.7772 12.6013 24.7481 12.1321 24.4491 11.6271C24.0997 11.0347 23.5813 11.6965 23.2285 11.7178C22.6709 11.7514 22.3249 11.0616 22.7224 10.5924Z" fill="#FF6002"/>
<path d="M30.029 17.899C31.1499 16.5844 33.4836 17.7333 33.0905 19.6593C32.9786 20.2103 32.2877 20.9829 31.7222 20.4779C31.0839 19.9079 32.0547 19.4387 31.7558 18.9337C31.4064 18.3413 30.8879 19.0031 30.5352 19.0244C29.982 19.0569 29.6461 18.3481 30.029 17.899Z" fill="#FF6002"/>
<path d="M25.7805 14.9495C26.5364 14.8487 26.4132 15.6852 26.6002 16.1096C26.9989 17.0133 28.0492 16.4075 28.2217 17.1768C28.4848 18.3503 26.7861 18.0345 26.1467 17.5709C25.4222 17.0457 24.5756 15.1096 25.7805 14.9484V14.9495Z" fill="#FF6002"/>
</svg>
