<svg width="53" height="53" viewBox="0 0 53 53" fill="none" xmlns="http://www.w3.org/2000/svg">
<path d="M19.668 0C20.1648 0.30087 20.4216 0.90813 19.9288 1.34839C19.5507 1.68653 19.0524 1.50159 18.5942 1.56646C15.2941 2.02742 16.6343 5.82832 16.3582 8.129C16.1305 10.0198 13.9732 9.0813 12.9049 9.64439C11.3702 10.4532 11.326 12.6393 12.7393 13.6068C13.7496 14.2968 14.5391 13.6992 15.4045 14.0484C15.8807 14.2402 16.2947 14.7426 16.3582 15.2671C16.5515 16.8791 15.8503 19.9043 17.0249 21.1216C18.1994 22.3389 21.1213 21.6737 22.6699 21.842C22.035 18.6884 25.1598 16.1655 28.1245 17.4753C29.691 18.1667 30.7552 20.0423 30.3301 21.7385C31.3142 21.7454 32.2996 21.7344 33.2851 21.7358C33.5322 21.7358 33.7599 21.8517 34.0056 21.8517C35.6177 21.8503 36.5272 20.8635 36.6487 19.3109C36.8819 16.345 36.5038 13.0354 36.6004 10.0364C36.5286 9.77137 36.3699 9.48016 36.0731 9.42495C35.0048 9.22621 33.7544 9.56021 32.5246 9.24691C30.6834 8.77767 29.3046 6.85928 29.6303 4.94503C29.7407 4.2936 30.7648 3.10945 31.4177 3.10945H36.4389C36.1835 2.15025 35.2519 1.63822 34.3147 1.55817L22.7445 1.53471C22.0309 1.27801 22.0682 0.386438 22.6699 0.00414041H35.0918C36.5797 0.444404 37.8715 1.49331 38.0979 3.10531C40.574 2.89691 42.9507 3.80642 44.509 5.75241C44.872 6.20509 45.3191 7.32024 45.5952 7.56453C46.1155 8.02411 47.2859 7.41685 47.493 8.36087C47.7814 9.68304 45.9347 9.50362 45.1328 9.16549C44.077 8.72108 43.9514 7.6639 43.3123 6.84548C42.1046 5.29696 40.5878 4.76423 38.6679 4.65796C36.8861 4.55997 33.9807 4.49648 32.2417 4.65796C30.9608 4.77803 31.0257 5.75793 31.5695 6.684C32.7786 8.74178 35.6356 6.99867 37.3153 8.28772C38.4747 9.17653 37.8053 10.2489 39.7472 10.7209C40.5188 10.9086 41.9694 10.6409 42.1129 11.5724C42.3683 13.2258 38.9688 12.2252 38.1973 11.9078V18.636H40.0081C40.5574 18.636 41.9873 17.8217 42.4414 17.4463C43.5359 16.5437 43.5663 15.6728 45.2833 15.5265C47.1314 15.3678 49.1644 15.6963 51.0304 15.4769C51.2872 15.2836 51.4114 15.0739 51.4486 14.7564C51.5342 14.036 51.5632 10.6312 51.4252 10.0143C51.1988 9.00815 49.7468 9.79345 49.5895 8.74316C49.417 7.59075 50.7696 7.63906 51.548 7.92612C52.2395 8.18007 52.7157 8.87842 53 9.52708V15.4272C52.7253 16.0593 52.3251 16.6486 51.6778 16.9522C50.4356 17.536 46.8774 17.0378 45.2833 17.1827C44.5435 17.2503 44.0259 18.2413 43.4214 18.7367C41.9142 19.9747 40.0288 20.4039 38.1034 20.3032C37.8867 21.5978 36.8626 22.7377 35.637 23.167C34.6211 23.523 31.437 23.5037 30.2735 23.4016C28.0044 23.2015 29.2494 21.0416 28.4295 19.7594C27.6097 18.4773 25.5835 18.3931 24.6547 19.6366C23.672 20.9532 25.0522 23.196 22.7251 23.4002C21.5354 23.5051 18.3223 23.5244 17.2871 23.1366C13.9456 21.8793 14.9421 18.3475 14.8014 15.5307C8.60698 16.3036 8.60422 7.04008 14.8014 7.86954C14.9725 5.09684 13.947 1.88665 16.9724 0.361596C17.2912 0.2015 17.6142 0.173897 17.9082 0.00276027H19.668V0Z" fill="#FF6002"/>
<path d="M0 39.1269C1.03516 36.3776 4.59609 37.6377 6.88586 37.37C7.64911 37.2802 7.64221 36.6288 7.99141 36.0947C9.56346 33.6795 12.0023 32.4967 14.9021 32.7051C15.1119 31.0821 16.6757 29.764 18.2712 29.6053C19.6611 29.4673 21.2566 29.7061 22.6699 29.6039C21.8804 23.4168 31.1361 23.4361 30.3315 29.6039C32.3383 29.7751 34.6888 29.1264 36.472 30.2443C38.995 31.8259 38.0082 34.9727 38.1986 37.4707C44.3903 36.6771 44.3903 45.9503 38.1986 45.1318C38.0275 47.9045 39.053 51.1147 36.0276 52.6398C35.7087 52.7999 35.3858 52.8275 35.0918 52.9986H33.332C32.6461 52.6398 32.6668 51.5757 33.4935 51.4515C34.0594 51.3673 34.5577 51.4915 35.1663 51.261C37.4464 50.4012 36.414 46.7618 36.6418 44.8696C36.8419 43.2093 38.4678 43.731 39.485 43.5723C41.4021 43.2728 41.9362 40.5387 40.2607 39.3932C39.2338 38.6907 38.3836 39.3228 37.5168 38.9267C37.0848 38.7294 36.697 38.2008 36.6418 37.7329C36.4485 36.1209 37.1386 33.1757 36.0221 31.935C34.9055 30.6942 31.7738 31.3125 30.17 31.1621C28.0472 30.9634 29.2411 28.7607 28.4074 27.542C27.462 26.1591 25.4483 26.1922 24.5484 27.6041C23.8334 28.7248 24.7637 30.3547 23.4318 31.042C22.8217 31.3567 19.9274 31.0848 18.9903 31.1552C17.8958 31.2366 16.9214 31.5927 16.5611 32.712H21.4774C22.082 32.712 23.0674 33.6698 23.262 34.2398C23.9066 36.1278 22.467 38.2574 20.6562 38.8246C19.3712 39.2276 18.0766 38.815 16.9269 39.0289C16.6301 39.0841 16.4714 39.3753 16.3996 39.6403C16.5128 42.6573 16.096 46.0414 16.3513 49.0183C16.4728 50.4302 17.2609 51.3121 18.6853 51.446L30.2555 51.4694C31.0533 51.7648 31.016 52.5887 30.3301 53H17.9082C16.3789 52.9586 14.8524 51.5233 14.8027 50.0396C12.0865 50.4481 9.6725 49.108 7.99555 47.035C6.36138 46.9619 4.72445 46.9674 3.08339 47.0544C1.65901 47.133 0.144922 46.5962 0 45.0283V39.1269ZM14.8027 48.3393V41.5076C13.9677 41.8278 11.0955 42.7746 10.8871 41.4289C10.7021 40.2337 12.7117 40.5084 13.5026 40.26C15.1754 39.7341 14.6385 38.6273 15.7399 37.8392C17.4182 36.6385 20.2187 38.325 21.4471 36.3003C21.7852 35.7442 22.1151 34.4827 21.1738 34.3599C17.4776 34.807 12.2742 33.0239 9.68768 36.4439C8.76708 37.6612 8.85128 38.8564 6.88724 39.0261C5.98044 39.1048 2.38224 38.8398 1.90745 39.1186C1.69766 39.2428 1.57758 39.5602 1.54997 39.7962C1.4299 40.8051 1.45336 43.2204 1.54721 44.2541C1.5831 44.6529 1.70042 44.9938 2.12414 45.1263C3.877 45.234 5.77341 44.9938 7.50833 45.1249C9.51378 45.2768 9.46409 46.247 10.7739 47.2421C11.9195 48.1129 13.3908 48.3517 14.8014 48.3379L14.8027 48.3393Z" fill="#FF6002"/>
<path d="M24.5042 44.635C25.4414 44.4225 25.5697 45.3209 26.4476 45.3471C27.3254 45.3734 27.3682 44.8117 27.8402 44.6598C28.1839 44.5494 28.7359 44.5729 28.9085 44.9483C29.4398 46.1048 27.4454 46.9716 26.5414 46.9826C25.6374 46.9936 23.6816 46.1738 24.0626 45.0214C24.1302 44.8172 24.2972 44.6833 24.5042 44.6364V44.635Z" fill="#FF6002"/>
<path d="M32.682 43.3901C32.9953 43.2963 33.4866 43.4481 33.6495 43.7255C33.7944 43.9712 33.7985 45.3554 33.724 45.677C33.5667 46.3615 32.3245 46.3864 32.2003 45.5887C32.1133 45.038 32.0443 43.5806 32.682 43.3901Z" fill="#FF6002"/>
<path d="M19.4913 46.0303C19.1877 45.786 19.1711 44.2141 19.276 43.858C19.432 43.3252 20.3912 43.1624 20.7086 43.7282C20.8577 43.9946 20.8646 45.4396 20.7611 45.7584C20.612 46.2194 19.8281 46.3036 19.4913 46.0317V46.0303Z" fill="#FF6002"/>
</svg>
