<svg width="42" height="43" viewBox="0 0 42 43" fill="none" xmlns="http://www.w3.org/2000/svg">
<path d="M42.0011 24.1875V25.4473C41.6959 26.6354 40.9467 27.6353 39.7873 28.0541C40.483 29.8928 39.9 31.745 38.1752 32.6576C36.1364 33.7371 30.9356 35.8904 28.7569 36.0327C25.9328 36.2174 21.6978 35.4604 19.2062 36.6687C18.1027 37.2051 16.7847 38.3148 15.7281 38.7347C14.9614 39.0393 14.4058 38.2006 15.0522 37.6239C15.5684 37.1625 17.5098 36.1066 18.2098 35.7337C21.2723 34.1021 24.7341 34.9543 28.0995 34.7729C30.6972 34.6329 34.907 32.7864 37.322 31.6173C38.1106 31.2355 38.7253 30.7484 38.8008 29.7719C38.932 28.0485 37.4686 27.1393 35.9341 27.5928C34.148 28.1213 32.2164 29.2904 30.3942 29.8996C26.845 31.0877 22.5367 30.2165 18.8278 30.4841C18.2558 30.3374 18.1825 29.38 18.7611 29.2445C20.7517 29.0843 22.9261 29.3979 24.8948 29.2254C27.7933 28.9712 27.603 25.1998 25.1409 24.9445C23.3319 24.7575 21.2461 25.0968 19.4108 24.9322C17.4891 24.7597 16.1634 23.4932 14.0689 23.6007C11.0873 23.753 10.3534 25.5839 8.19656 26.9937C6.41703 28.1572 3.80297 29.2602 2.22141 30.5345C0.920937 31.5826 1.11563 32.8077 1.79047 34.1525C2.87766 36.3227 4.32687 38.4133 5.42828 40.5902C7.46266 43.4524 10.5602 39.8915 12.7127 39.0068C13.4947 38.756 13.9519 39.6944 13.2847 40.1804C11.5467 41.0829 9.97281 42.3416 8.12109 42.9989H6.80859C5.90516 42.9888 4.82125 42.3572 4.34109 41.5723C2.86125 39.1524 1.45359 36.597 0.154219 34.0909L0 33.1738V31.8301C0.180469 31.4001 0.266875 30.9533 0.506406 30.5434C1.4175 28.9925 5.97406 26.9299 7.67156 25.7854C9.86453 24.3073 10.558 22.5728 13.6555 22.3376C16.0759 22.154 16.6381 22.949 18.6397 23.4563C20.8556 24.0184 23.9914 23.1136 26.1308 23.8493C26.4808 23.9703 26.9708 24.3935 27.1983 24.4361C28.1575 24.6186 30.1952 24.3913 31.1741 24.1472C33.39 23.594 35.5983 22.0935 37.718 21.5246C39.7152 20.9894 41.5067 22.1842 42.0011 24.1875ZM27.6456 29.1415C30.4106 28.9354 32.8519 27.2748 35.4167 26.3912C36.5827 25.9892 37.2881 26.0329 38.3939 26.5783C38.78 26.7686 38.7231 27.0374 39.2547 26.8795C40.9992 26.361 41.2913 23.8001 39.6473 22.9423C38.9725 22.5907 38.5667 22.6467 37.8777 22.8639C36.1911 23.3947 34.4455 24.3969 32.7513 25.0061C31.22 25.557 29.692 25.8414 28.0558 25.7843C28.5359 26.8929 28.3314 28.1762 27.6456 29.1415Z" fill="#FF6002"/>
<path d="M32.0754 0C33.8636 0.380729 35.2188 1.76479 35.4419 3.65052L35.4222 11.0266C35.1214 11.601 34.4422 11.5742 34.2104 10.9583C34.0758 8.72094 34.3832 6.28315 34.2114 4.07044C34.1119 2.78044 33.0707 1.25977 31.7068 1.25977H29.8605V6.92815C29.8605 7.66273 29.0468 8.39956 28.3424 8.39732C28.0241 8.39732 27.7485 8.18008 27.3657 8.23271C26.9172 8.2943 26.5038 8.82956 25.8038 8.81948C25.0108 8.80828 24.5908 8.16888 23.9214 8.23831C23.7016 8.2607 23.4774 8.3962 23.2564 8.39732C22.8244 8.39844 22.2152 8.06026 21.9975 7.67169C21.9308 7.55188 21.7394 6.94719 21.7394 6.84417V1.25977H19.8932C18.6682 1.25977 17.3513 2.82747 17.3929 4.07492C17.616 7.82846 17.0899 11.9527 17.3929 15.6625C17.5241 17.2717 18.5654 18.3433 20.1371 18.4799C23.8143 18.2504 27.825 18.7755 31.4629 18.4799C32.9897 18.3556 34.0649 17.3232 34.2071 15.7465C34.2563 15.1956 34.09 13.8373 34.2508 13.4397C34.4499 12.9493 35.28 12.9997 35.4211 13.4968C35.5053 13.7914 35.4758 15.7655 35.4375 16.1664C35.2614 17.9727 33.6296 19.584 31.873 19.7397C27.976 20.0857 23.5955 19.4754 19.6482 19.7363C17.8336 19.4609 16.4304 18.0219 16.1613 16.1664V3.5699C16.426 1.74576 17.7232 0.444557 19.4414 0H32.0754ZM28.548 1.25977H23.0519V6.92815C23.0519 7.20362 23.7738 6.90911 23.9225 6.89456C24.8304 6.80161 25.2471 7.48245 25.7994 7.48245C26.3518 7.48245 26.7685 6.80161 27.6763 6.89456C27.825 6.91023 28.5469 7.20362 28.5469 6.92815V1.25977H28.548Z" fill="#FF6002"/>
<path d="M24.2605 12.7824C25.0054 12.6178 25.1825 13.7174 26.2839 13.2617C26.6449 13.1128 27.2191 12.3043 27.6818 13.0232C28.2264 13.8709 26.6952 14.6222 26.0379 14.6894C25.3805 14.7566 24.2605 14.377 23.9214 13.7678C23.7125 13.3927 23.8197 12.881 24.2605 12.7835V12.7824Z" fill="#FF6002"/>
<path d="M31.3961 11.9493C31.7636 12.3244 31.7549 14.2684 30.823 14.0959C30.1591 13.9728 30.1996 12.8373 30.2893 12.3222C30.379 11.8071 31.0341 11.5798 31.395 11.9482L31.3961 11.9493Z" fill="#FF6002"/>
<path d="M21.1422 11.9493C21.5097 12.3244 21.501 14.2684 20.5691 14.0959C19.9227 13.9761 19.9249 12.8205 20.0332 12.3211C20.1414 11.8216 20.7791 11.5798 21.1411 11.9493H21.1422Z" fill="#FF6002"/>
</svg>
