<svg width="43" height="44" viewBox="0 0 43 44" fill="none" xmlns="http://www.w3.org/2000/svg">
<path d="M18.1235 19.0157C18.6594 19.4804 18.0393 19.9361 18.0021 20.1343C17.9835 20.234 18.0765 20.6629 18.0677 20.8835C18.0502 21.3291 17.9616 21.8678 17.4279 21.9148C16.6098 21.9853 16.7334 20.86 16.7509 20.3348C16.0716 20.5587 14.6738 20.0593 15.2021 19.1254C15.5204 18.5621 16.0027 19.0448 16.3823 19.0784C16.9291 19.1276 17.6838 18.636 18.1224 19.0145L18.1235 19.0157Z" fill="#FF6002"/>
<path d="M20.6479 21.1309C20.9104 21.1253 21.4682 21.3661 21.8073 21.4165C22.294 21.4893 23.1843 21.4288 23.5649 21.5486C24.1894 21.7435 24.0888 22.6875 23.4413 22.7748C22.843 22.8565 20.3526 22.7244 20.0759 22.0973C19.8746 21.6427 20.1557 21.1421 20.6468 21.1309H20.6479Z" fill="#FF6002"/>
<path d="M27.4565 17.6943C28.2801 17.6943 29.5149 18.6383 28.6443 19.2822C28.0438 19.7267 27.8316 18.9899 27.4598 18.9854C26.961 18.9787 26.1877 19.8432 25.7699 19.1232C25.2405 18.2094 26.8177 17.6954 27.4565 17.6954V17.6943Z" fill="#FF6002"/>
<path d="M27.7234 19.5946C28.5338 19.5218 28.4518 20.6808 28.4037 21.2205C28.3271 22.0828 27.3449 22.0917 27.1863 21.5352C27.1294 21.337 27.1415 20.4501 27.1644 20.2038C27.1962 19.8633 27.3712 19.6259 27.7234 19.5946Z" fill="#FF6002"/>
<path d="M8.54882 0.0105502C9.14492 0.0351856 9.68742 0.188597 10.1741 0.471904C10.7112 0.244587 11.2504 0.0799773 11.8301 0.0105502H13.3066C15.1266 0.0631804 16.4949 1.46516 17.0538 3.14485C19.3168 3.82232 20.9377 6.06302 20.5298 8.52321C20.4488 9.01256 20.3099 9.79305 19.8691 10.0047L20.0441 9.83672H21.991L22.166 10.0047C21.6968 9.80873 21.548 8.95321 21.4802 8.44482C21.1499 5.96448 22.7074 3.79769 24.9802 3.14597C25.5709 1.51779 26.8352 0.113571 28.6465 0.0105502H30.123C30.7519 0.0407846 31.3327 0.203154 31.8676 0.498779C32.351 0.200915 32.8913 0.038545 33.4863 0.0105502H34.8809C36.7982 0.0587012 38.0549 1.50211 38.7188 3.16948C40.4371 3.68907 41.9279 5.1448 42.0176 7.06524V8.49297C41.9629 9.33282 41.7365 10.0764 41.2159 10.7404C41.6884 11.1043 41.9716 11.4828 42.0176 12.1043V13.0281C41.953 14.1087 41.0354 14.5544 40.1298 14.7022C40.0193 17.0068 37.0519 17.5879 36.1977 15.4166C34.7124 15.8982 33.2216 15.9049 31.8413 15.0953L31.2069 15.4222C32.2876 17.4412 33.1768 19.6495 33.0434 22.0133C37.1405 23.4601 35.4255 29.8396 31.0976 29.0154C29.8518 30.8742 28.2221 32.3826 26.1943 33.4005C28.2626 34.4856 31.2649 38.1193 30.8154 40.5705C30.5944 41.7777 29.563 42.968 28.3184 43.0117H26.5957C25.8027 42.8896 25.9493 41.7239 26.6963 41.5918L27.8841 41.5459C30.6535 41.0733 28.3763 37.4351 27.2815 36.3276C26.5257 35.5639 24.9277 34.1396 23.8329 34.2101C21.7974 34.5528 19.9085 34.7073 17.9277 34.1452C17.2179 34.1586 15.3848 35.6367 14.8466 36.1877C13.6085 37.453 11.2941 40.9804 14.2724 41.5839L24.6193 41.5918C25.3018 41.7967 25.4462 42.8571 24.709 43.0106H13.7168C13.0726 42.949 12.6252 42.7866 12.1418 42.3174C9.34617 39.6064 13.3777 34.8002 15.7862 33.3568C13.7824 32.3692 12.1254 30.8541 10.9091 29.0154C6.62054 29.7948 4.94382 23.6001 8.9032 22.0066C8.9032 19.6741 9.63273 17.3841 10.8282 15.4211L10.2266 15.0796C8.50726 16.0941 6.67195 15.9082 5.02476 14.8769C4.13554 14.8321 3.24304 14.8433 2.34726 14.9116C1.30382 14.9228 0.0624176 14.5331 0.0175739 13.2812V12.3574C0.0558551 11.6777 0.423355 11.2533 0.981168 10.9274C0.364293 10.232 0.0602301 9.42464 0.0175739 8.49297C0.0569489 8.04058 -0.0371136 7.5042 0.0175739 7.06524C0.0317926 5.1448 1.64836 3.65771 3.33929 3.14485C3.50554 2.33188 4.65617 0.744014 5.28617 2.06313C5.50273 2.51664 4.80054 4.3419 4.32148 4.59274C0.740542 5.03841 0.341324 10.2813 4.04257 10.7717C6.18523 10.5142 8.8496 10.8513 7.8182 13.8086C7.43648 14.1311 7.56882 14.2252 8.21742 14.0931C8.90648 13.8769 9.57804 13.6048 10.231 13.2767C10.7844 13.5634 11.339 13.812 11.8946 14.0247C13.4696 12.2219 15.399 10.9621 17.6685 10.2365C19.7444 9.09206 19.1932 5.69797 17.0768 4.88612C16.0629 4.70808 15.6079 4.43933 15.4274 3.33073C14.5809 1.32631 12.1768 0.970212 10.558 2.2143C10.3141 2.33524 10.044 2.29381 9.80992 2.17959C8.80695 1.39797 7.80835 1.34198 6.6282 1.65664C4.97117 1.52003 5.67773 -0.155179 7.07226 0.01167H8.54882V0.0105502ZM39.8859 10.0047C41.3373 8.50417 40.914 5.96 39.1399 4.93091C38.7363 4.69688 37.7476 4.51211 37.5835 4.34078C37.3932 4.14034 37.193 3.18068 36.9163 2.75628C36.143 1.56818 34.6829 1.04972 33.3387 1.41477C32.841 1.55026 32.2143 2.09336 31.8851 2.11688C31.4487 2.14711 30.9849 1.63985 30.531 1.4842C29.2229 1.03404 27.6905 1.44052 26.856 2.58831C26.5213 3.04855 26.2534 4.14482 26.0269 4.34302C25.7699 4.5681 25.0284 4.62969 24.6248 4.83909C23.158 5.59943 22.528 7.51763 23.1274 9.06631C23.729 10.6206 24.7659 10.4985 26.0521 11.111C27.1382 11.6295 28.2538 12.4167 29.1409 13.2398C29.3169 13.4033 29.9918 14.2017 30.0826 14.2106C30.6491 14.2666 31.4191 13.4469 31.8052 13.4458C32.1191 13.4458 32.8749 14.0393 33.3212 14.1658C33.8637 14.3192 34.4138 14.3405 34.9629 14.205C33.4076 12.9542 34.1896 10.5243 36.1934 10.6788C36.0687 8.24214 39.2821 7.62961 39.8848 10.0058L39.8859 10.0047ZM40.6001 13.0046C40.8144 12.7829 40.8243 12.3159 40.5859 12.0998C40.1702 11.7225 39.1673 12.1737 38.8151 11.7292C38.3962 11.1995 39.0491 9.87032 38.1184 9.83112C36.9032 9.77961 38.0823 11.7527 36.9666 11.9307C36.4876 12.0069 35.3752 11.7169 35.3785 12.5657C35.3818 13.5399 36.8551 12.9856 37.2652 13.3148C37.8209 13.7605 37.0979 15.2386 38.0374 15.3024C39.0907 15.3741 38.359 13.8545 38.8555 13.3596C39.2329 12.9822 40.2052 13.41 40.6001 13.0035V13.0046ZM12.5432 28.0356C12.4393 28.1733 12.1516 28.1308 12.2807 28.4768C12.3299 28.6078 12.7324 29.0949 12.8538 29.2382C17.5941 34.8473 26.2785 34.2493 30.0749 27.8866C35.0209 19.5968 27.7594 9.39552 18.5555 11.5578C13.9388 12.6418 10.4323 16.9709 10.3546 21.8454C10.9791 21.8185 12.2949 22.1634 11.7404 23.0559C11.4363 23.5452 11.0294 23.2205 10.7166 23.197C7.04929 22.9204 7.38617 27.9382 10.6412 27.5574C11.2329 27.488 11.8016 26.8408 12.1779 26.9001C12.7149 26.9852 12.8659 27.6067 12.5432 28.0356ZM6.47726 13.2588C6.8721 12.8187 6.54507 12.2499 5.96539 12.1883C5.09585 12.0953 2.71367 12.0763 1.87148 12.1961C1.01398 12.3182 1.07851 13.3517 1.94367 13.4503C2.80882 13.5488 5.0871 13.55 5.96648 13.4503C6.09117 13.4357 6.4007 13.3428 6.47617 13.2588H6.47726ZM31.7637 27.5574C34.0091 27.6078 34.7791 24.6213 32.8705 23.4433C32.7491 24.8789 32.3007 26.2406 31.7637 27.5574Z" fill="#FF6002"/>
<path d="M9.61632 4.54571C10.7976 4.14482 11.9646 4.99138 12.0773 6.22539C13.7868 5.78756 14.7274 7.12235 14.5284 8.7774C14.431 9.58589 13.7376 10.3328 12.938 10.4246C11.736 10.5635 8.64945 10.5579 7.44195 10.4246C6.41273 10.3104 5.91289 9.32946 5.83961 8.36979C5.76632 7.41013 5.72804 4.48076 6.13492 3.71146C6.99023 2.09672 9.51351 2.69805 9.61632 4.54571ZM8.30273 9.16485V4.41917C8.30273 4.3643 8.02382 4.15042 7.93523 4.11683C7.45836 3.93542 7.18929 4.29935 7.14992 4.75175C7.04164 5.99584 7.2232 7.42133 7.17179 8.68446C7.28336 9.20068 7.9057 9.185 8.30273 9.16485ZM10.7637 9.16485V6.09886C10.7637 5.71365 9.61523 5.63414 9.61523 6.18284V9.16373H10.7637V9.16485ZM12.0762 9.16485C13.0179 9.24323 13.3252 8.99912 13.229 8.02602C13.1393 7.11115 12.0762 7.465 12.0762 7.86365V9.16485Z" fill="#FF6002"/>
<path d="M29.3016 6.22539C29.4121 4.99586 30.5791 4.1437 31.7626 4.54571C32.1585 2.08216 35.2899 2.17735 35.5262 4.76631C35.6115 5.69797 35.6454 8.61839 35.3052 9.38881C35.0941 9.86584 34.521 10.3451 34.0124 10.4168C32.2427 10.3082 30.2641 10.587 28.5207 10.428C25.8519 10.1839 26.4787 5.35532 29.3027 6.22539H29.3016ZM33.0762 9.16485C33.7018 9.18052 34.1634 9.1962 34.229 8.4549C34.3395 7.21305 34.1535 5.78308 34.2071 4.52219C34.0551 3.85144 33.0762 4.12467 33.0762 4.42029V9.16597V9.16485ZM31.7637 6.18396C31.7637 5.988 31.3349 5.75844 31.149 5.75956C31.0035 5.75956 30.6152 5.99808 30.6152 6.09998V9.16597H31.7637V6.18396ZM29.3027 9.16485V7.86365C29.3027 7.51091 28.2418 7.08651 28.1499 8.02602C28.0548 9.00024 28.3621 9.24435 29.3027 9.16485Z" fill="#FF6002"/>
</svg>
