<svg width="42" height="43" viewBox="0 0 42 43" fill="none" xmlns="http://www.w3.org/2000/svg">
<path d="M33.5501 23.6614C38.7817 22.894 38.6463 31.1381 33.5501 30.3267C30.0505 29.7692 30.073 24.1706 33.5501 23.6614ZM33.9613 24.9191C30.9005 25.2939 32.1464 30.2353 35.1005 28.8527C37.0529 27.9383 36.2356 24.6409 33.9613 24.9191Z" fill="#FF6002"/>
<path d="M19.6797 25.3443C20.1749 24.791 20.7071 25.5112 21.2044 25.6162C21.6936 25.7191 22.2062 25.6655 22.6287 25.3884C23.0512 25.1112 23.5085 24.0037 24.1606 24.686C24.7954 25.3506 23.4818 26.4445 22.9281 26.7006C22.1652 27.0544 21.4054 27.0838 20.6179 26.8035C20.0929 26.6166 19.0788 26.0161 19.6807 25.3443H19.6797Z" fill="#FF6002"/>
<path d="M22.519 42.9201C21.4967 42.9852 20.1052 42.9789 19.0809 42.9201C14.3876 42.6493 9.33452 40.725 5.73437 37.5986C5.34882 37.2638 4.13374 36.2318 4.13476 35.7531C4.13579 35.2744 4.66694 34.9825 5.11196 35.2187C5.41342 35.3794 6.30859 36.3977 6.67978 36.7147C14.282 43.1878 26.8082 43.2466 34.5458 37.0013C39.5999 32.9228 41.7769 26.7563 39.2595 20.4585C39.0452 19.9231 37.9921 18.3599 39.2616 18.3505C39.8122 18.3463 40.1742 19.3457 40.3813 19.8129C42.1798 23.885 41.9563 28.6018 39.9188 32.5281C36.6386 38.8479 29.3081 42.4897 22.519 42.9201Z" fill="#FF6002"/>
<path d="M28.3914 22.4017C28.8733 22.3544 29.0241 22.7282 29.1266 23.1197C29.305 23.7969 29.5316 25.1427 28.3883 24.7973C28.0028 24.6808 27.3886 22.5004 28.3914 22.4027V22.4017Z" fill="#FF6002"/>
<path d="M3.19653 20.4564L2.39365 21.5209C0.662788 24.3669 1.15395 28.227 2.44492 31.1591C2.63872 31.6001 3.25498 32.5102 3.34008 32.8409C3.51337 33.516 2.95249 34.0409 2.38237 33.6545C2.15166 33.4981 1.45234 32.0851 1.29956 31.746C-1.05577 26.518 -0.436431 20.1414 5.04018 17.4403C7.40781 14.3182 9.54575 11.1341 12.7029 8.77311C13.5673 8.12643 14.6153 7.29813 15.7237 7.29708C15.4838 3.44535 17.9129 1.96512 21.1091 1.03395C22.1683 0.725304 24.1617 0.120616 25.1881 0.0135362C26.3273 -0.105092 27.0553 0.563634 27.1066 1.71947C27.1271 2.17298 27.0604 3.00758 27.0215 3.48209C26.6913 7.41571 25.0353 12.3865 20.3093 11.9918C20.2713 13.092 19.5105 14.083 18.9014 14.9512C18.2575 15.8698 17.4361 16.8828 16.665 17.6901C16.3851 17.983 15.8775 18.3022 15.6407 18.6539C15.5935 18.7242 15.5269 18.7368 15.5597 18.8638C17.4997 19.8475 19.3587 20.7262 21.3172 19.1861C23.3475 17.5904 22.4585 15.6157 23.3485 13.555C24.3914 11.1404 26.8297 9.91949 29.3532 10.1494C31.4624 10.3415 36.1864 13.5917 37.461 15.3428C37.8855 15.9254 37.5317 16.6319 36.9278 16.4829C36.5791 16.3968 35.1979 14.8798 34.755 14.5082C32.1966 12.3613 28.0192 9.71058 25.2219 12.9576C23.6767 14.7507 24.4877 16.6267 23.5157 18.5027C22.4523 20.554 20.3082 21.544 18.079 21.2721C16.8394 21.1199 15.5545 20.1435 14.3846 19.7173L8.90488 24.0803C7.20888 25.4325 4.55825 24.8099 3.5913 22.8615C3.50415 22.6862 3.19653 21.8936 3.19653 21.756V20.4564ZM23.6367 9.53001C25.0066 8.12748 25.7028 4.83109 25.7931 2.8942C25.8074 2.58346 25.9028 1.34049 25.5798 1.28065C22.8594 2.14254 17.9037 2.25382 17.0865 5.71607C17.0075 6.04991 16.8486 7.21415 17.0496 7.44825C17.0854 7.49024 17.8514 7.77999 18.0421 7.89862C19.0009 8.49491 19.8243 9.53946 20.1534 10.6397C21.4567 10.7803 22.6943 10.4948 23.6367 9.53001ZM13.1849 9.98038C13.0885 10.1242 15.3956 12.0286 15.4766 12.5419C15.5627 13.0952 15.0377 13.5308 14.5466 13.2369C14.1621 12.9975 12.4486 10.9483 12.2323 10.9095C12.0385 10.8748 10.4696 12.5199 10.2358 12.7844C8.24863 15.0352 6.48906 17.7584 4.65566 20.1467C3.781 22.2085 5.82973 24.2661 7.83847 23.2373C8.15532 23.0746 8.53881 22.7261 8.83823 22.5004C10.9218 20.9319 13.6463 18.8733 15.4797 17.0624C15.6509 16.8933 16.7665 15.7218 16.783 15.6252C16.8219 15.3974 15.8673 15.011 16.341 14.3392C16.8414 13.6295 17.5212 14.5355 17.6453 14.505C17.7694 14.4746 18.8778 12.6668 18.9578 12.4086C19.3946 11.005 18.3087 9.45653 17.106 8.85814C15.3874 8.0036 14.564 9.18043 13.1869 9.98038H13.1849Z" fill="#FF6002"/>
<path d="M14.8829 24.8278C15.5966 24.6944 15.7699 25.9532 15.7976 26.4634C15.8375 27.2192 15.0521 27.5793 14.6686 27.0271C14.5425 26.8455 14.3477 25.8461 14.3374 25.5983C14.3241 25.2792 14.5589 24.8897 14.8829 24.8288V24.8278Z" fill="#FF6002"/>
<path d="M9.24223 25.9248C13.4658 25.7621 13.8903 32.2908 9.70571 32.6929C5.23501 33.1223 4.8351 26.0949 9.24223 25.9248ZM8.98794 27.2654C6.84897 27.6412 6.84179 31.0426 8.97563 31.345C12.2999 31.8163 12.0292 26.7311 8.98794 27.2654Z" fill="#FF6002"/>
<path d="M27.568 31.2169C31.7239 31.1749 31.969 37.5283 28.0458 37.9745C23.3742 38.5057 23.0327 31.262 27.568 31.2169ZM27.246 32.547C24.8169 32.9386 25.1645 36.7535 27.6275 36.7084C30.4412 36.657 30.1264 32.083 27.246 32.547Z" fill="#FF6002"/>
<path d="M17.8104 31.9035C22.0104 31.9444 22.1088 38.2443 18.2195 38.6442C13.5048 39.1293 13.2905 31.8594 17.8104 31.9035ZM17.5048 33.2189C14.6645 33.623 15.6386 38.2422 18.4841 37.2386C20.7215 36.4502 19.9545 32.8703 17.5048 33.2189Z" fill="#FF6002"/>
</svg>
